<?xml version="1.0" encoding="UTF-8"?>
<svg version="1.1" xmlns="http://www.w3.org/2000/svg" width="1484" height="1059">
<path d="M0 0 C489.72 0 979.44 0 1484 0 C1484 349.47 1484 698.94 1484 1059 C994.28 1059 504.56 1059 0 1059 C0 709.53 0 360.06 0 0 Z " fill="#FDFDFD" transform="translate(0,0)"/>
<path d="M0 0 C3.32036126 1.78529063 6.28834003 4.00746907 9.3125 6.25 C10.19550781 6.88679687 11.07851563 7.52359375 11.98828125 8.1796875 C13.80153481 9.48752268 15.6109547 10.80068948 17.41650391 12.11914062 C21.08198862 14.7877188 24.79009722 17.39374892 28.5 20 C29.87904037 20.97507076 31.25794461 21.95033408 32.63671875 22.92578125 C35.77723354 25.1429977 38.92720519 27.34616513 42.08203125 29.54296875 C73.55008046 51.45522916 73.55008046 51.45522916 75 59 C75.11775878 61.75975057 75.18495078 64.49632703 75.20532227 67.25683594 C75.21535499 68.09985386 75.22538771 68.94287178 75.23572445 69.8114357 C75.26706456 72.535721 75.29186211 75.26002088 75.31640625 77.984375 C75.33481383 79.66813629 75.35365074 81.35189294 75.3729248 83.03564453 C75.4413209 89.27370813 75.5014067 95.51186061 75.5625 101.75 C75.706875 115.6925 75.85125 129.635 76 144 C115.6 144.33 155.2 144.66 196 145 C195.88141116 118.0898748 195.88141116 118.0898748 195.72973633 91.17993164 C195.71618652 85.95202637 195.71618652 85.95202637 195.71366882 83.49754333 C195.70908958 81.79874813 195.69859583 80.09996213 195.68327332 78.40122986 C195.66112398 75.81427306 195.65828825 73.22790737 195.65942383 70.64086914 C195.6486295 69.89567803 195.63783518 69.15048693 195.62671375 68.38271427 C195.66462855 61.87493643 196.91837167 55.58626551 201.0625 50.4375 C202.031875 49.633125 203.00125 48.82875 204 48 C204.6084375 47.47664063 205.216875 46.95328125 205.84375 46.4140625 C214.00670257 39.60202109 222.8843432 33.72241682 231.60986328 27.66601562 C234.82086854 25.42782361 238.0077205 23.15724598 241.1875 20.875 C246.44528821 17.10644816 251.71736642 13.35865893 257 9.625 C257.70664795 9.12468262 258.4132959 8.62436523 259.14135742 8.10888672 C260.47535294 7.16692448 261.81175438 6.22835747 263.15087891 5.29370117 C264.34245474 4.4600386 265.52761765 3.61709559 266.70458984 2.76293945 C269.68081856 0.65605112 270.85520396 0.00249648 274.625 -0.0625 C278.80726037 1.25413752 279.75457952 2.25598604 282 6 C282.57790083 9.21101318 282.53554416 12.37206865 282.50120544 15.62753296 C282.50673984 16.60283514 282.51227424 17.57813731 282.51797634 18.5829941 C282.53159999 21.85425322 282.51660378 25.12475165 282.50170898 28.39599609 C282.50549157 30.74002914 282.51099111 33.08405995 282.51808167 35.42808533 C282.5320628 41.79798556 282.52084693 48.16761648 282.50437045 54.53750181 C282.49193657 60.52547139 282.49612972 66.5134225 282.49950016 72.50139888 C282.5053788 84.36914133 282.49120834 96.23677769 282.46655273 108.10449219 C282.44264277 119.61462381 282.43554424 131.12461363 282.44604492 142.63476562 C282.45746197 155.17181785 282.45937364 167.70880448 282.44494683 180.24585593 C282.43737896 186.88088127 282.43351021 193.51586088 282.43945122 200.15089035 C282.44422427 206.39059414 282.43410535 212.63010168 282.41249657 218.86976814 C282.40693258 221.15988185 282.40645983 223.45001444 282.41144943 225.74012947 C282.4174066 228.86647058 282.4048881 231.9922126 282.38768005 235.11849976 C282.39669512 236.47770399 282.39669512 236.47770399 282.40589231 237.86436689 C282.19890664 258.54800583 260.5175308 278.85152363 247 293 C246.32582031 293.72703125 245.65164063 294.4540625 244.95703125 295.203125 C234.09478676 306.59805952 220.50836998 315.73279365 207.125 323.875 C206.16025757 324.46595459 206.16025757 324.46595459 205.17602539 325.06884766 C202.05388507 326.93777786 199.56779724 328.10805069 196 329 C196 293.69 196 258.38 196 222 C156.4 222.33 116.8 222.66 76 223 C75.67 261.28 75.34 299.56 75 339 C68.17908562 337.63581712 62.76556193 336.43197208 56.625 333.625 C55.86606445 333.28122314 55.10712891 332.93744629 54.32519531 332.58325195 C29.84367358 321.15338535 1.26285146 302.79029754 -10 277 C-11.9266394 270.62158696 -12.28619101 264.84730404 -12.26069641 258.20773315 C-12.26452196 257.14340754 -12.26834751 256.07908192 -12.27228898 254.98250401 C-12.28257992 251.42822668 -12.27863425 247.87411207 -12.2746582 244.31982422 C-12.27900672 241.76683401 -12.28419034 239.21384512 -12.29014587 236.66085815 C-12.30214031 230.4542235 -12.30468955 224.24764851 -12.30234561 218.04100452 C-12.30056038 212.99642859 -12.30231648 207.95186578 -12.30657005 202.90729141 C-12.30716524 202.18851375 -12.30776043 201.46973608 -12.30837366 200.72917727 C-12.30958543 199.26888393 -12.31079957 197.80859059 -12.31201603 196.34829725 C-12.32288203 182.66696584 -12.32073306 168.98565911 -12.31463119 155.30432631 C-12.30945827 142.78966204 -12.320729 130.27507552 -12.33972941 117.76042663 C-12.35910059 104.90285592 -12.36736537 92.04532202 -12.36360615 79.18773663 C-12.3616936 71.97206443 -12.36418728 64.75645847 -12.37832069 57.54079819 C-12.39146962 50.75936588 -12.38898445 43.97811482 -12.37590981 37.19667435 C-12.37353801 34.70617369 -12.37630019 32.21566213 -12.38453293 29.72517395 C-12.39495034 26.32936642 -12.38693964 22.93408778 -12.3742218 19.53829956 C-12.38159609 18.54958701 -12.38897037 17.56087446 -12.39656812 16.54220092 C-12.34751716 10.32998587 -11.3096396 6.29948515 -7.6875 1.125 C-4.92512329 -0.71658448 -3.30232283 -0.43783606 0 0 Z " fill="#036AEA" transform="translate(602,238)"/>
<path d="M0 0 C0.99 0.495 0.99 0.495 2 1 C1.48050781 1.68964844 0.96101562 2.37929688 0.42578125 3.08984375 C-10.80629371 18.22511666 -18.33250238 35.73184706 -23 54 C-23.20496094 54.75152344 -23.40992188 55.50304687 -23.62109375 56.27734375 C-29.13557517 80.35090749 -23.30358928 106.10544367 -11.16015625 127.1953125 C-1.68607915 142.03609584 10.63004555 155.04433606 24.54174805 165.75439453 C33.48912788 172.6462789 41.96954113 180.07454885 50.25 187.75 C55.31112746 192.43285577 60.55401048 196.77304654 66 201 C67.38978312 202.09577074 68.77906145 203.19218186 70.16796875 204.2890625 C78.91697711 211.17655985 87.71971677 217.83877054 97 224 C97.90806396 224.61125732 97.90806396 224.61125732 98.83447266 225.23486328 C117.63121564 237.86562951 137.36963683 248.68146428 158 258 C158.72944824 258.33805664 159.45889648 258.67611328 160.21044922 259.02441406 C171.30564666 264.14840573 182.76724808 268.04013282 194.375 271.8125 C195.10093353 272.0495163 195.82686707 272.28653259 196.57479858 272.5307312 C204.71105773 275.17494352 212.80703757 277.56772135 221.17919922 279.37353516 C225.49102098 280.33113725 229.90330976 281.32806018 234 283 C234.33 283.66 234.66 284.32 235 285 C209.67423988 285.24542295 184.57889387 285.47058683 159.484375 281.4921875 C155.98668532 280.99811923 152.50211061 280.66295854 148.98461914 280.35229492 C138.41477326 279.40908333 128.14049464 277.70938867 117.75244141 275.56201172 C114.94695053 274.98916801 112.13670141 274.44753362 109.32421875 273.91015625 C86.2363173 269.41574747 63.73898655 263.00396817 42 254 C41.25169922 253.69658691 40.50339844 253.39317383 39.73242188 253.08056641 C20.98855401 245.43026086 3.00105572 235.42434915 -13 223 C-13.93457031 222.27554688 -14.86914062 221.55109375 -15.83203125 220.8046875 C-36.40599959 204.38083294 -53.71689181 185.38298119 -66 162 C-66.45890625 161.13632812 -66.9178125 160.27265625 -67.390625 159.3828125 C-68.74564764 156.62988677 -69.89238761 153.86221107 -71 151 C-71.26087402 150.34418945 -71.52174805 149.68837891 -71.79052734 149.01269531 C-80.82472618 125.60614438 -79.08438417 100.4635605 -69.16015625 77.6953125 C-55.40344534 47.27666436 -30.47520166 15.23760083 0 0 Z " fill="#0360EA" transform="translate(559,366)"/>
<path d="M0 0 C20.35657591 6.13149877 43.27497573 24.19223961 56 41 C56.78761719 42.03640625 57.57523438 43.0728125 58.38671875 44.140625 C66.41644607 54.931186 72.80692257 65.65327681 76.17578125 78.80859375 C76.9552261 81.99836404 76.9552261 81.99836404 78.04296875 85.03515625 C83.02920813 100.48232234 80.84087271 118.8223463 76 134 C75.65143591 135.29785198 75.30906903 136.59738288 74.97265625 137.8984375 C64.53596989 176.71105958 30.3406542 209.36469494 -3.21972656 228.98388672 C-45.35156933 253.03116176 -92.69525857 257.20917683 -140.1875 252.625 C-141.49968506 252.49907471 -142.81187012 252.37314941 -144.16381836 252.2434082 C-154.11093706 251.18758349 -154.11093706 251.18758349 -159 249 C-156.63639931 246.63639931 -155.21100145 246.36981144 -152 245.5625 C-142.58411737 243.16747171 -133.64195772 240.21555325 -124.6875 236.4375 C-123.6464209 235.99986328 -122.6053418 235.56222656 -121.53271484 235.11132812 C-88.92934286 221.27209508 -57.44580854 204.23736994 -31.2578125 180.0703125 C-29.23524746 178.21571134 -27.16516016 176.44964839 -25.0625 174.6875 C0.3274884 152.46487434 22.49215308 117.42921141 25.30517578 83.29711914 C25.43535455 79.54693116 25.46739091 75.81477357 25.4375 72.0625 C25.43137695 70.74652832 25.42525391 69.43055664 25.41894531 68.07470703 C25.26807005 58.71463799 24.27289417 50.81163816 21 42 C20.73445312 41.04867187 20.46890625 40.09734375 20.1953125 39.1171875 C16.20701701 25.17714518 8.10021992 11.93575452 0 0 Z " fill="#0472F5" transform="translate(915,367)"/>
<path d="M0 0 C0.99 0 1.98 0 3 0 C6.23116363 9.14633551 9.46011916 18.29344477 12.68563843 27.44177246 C14.2378035 31.84297621 15.79451818 36.24252725 17.35546875 40.640625 C17.98706135 42.42705428 18.61857988 44.21350975 19.25 46 C19.53689697 46.80405273 19.82379395 47.60810547 20.11938477 48.43652344 C22 53.77297009 22 53.77297009 22 56 C42.46 56 62.92 56 84 56 C82.69836459 59.90490623 80.32379372 61.15432671 77.0625 63.375 C75.7807417 64.26880276 74.49951773 65.16337214 73.21875 66.05859375 C72.53425781 66.53409668 71.84976563 67.00959961 71.14453125 67.49951172 C67.42114653 70.10469415 63.74336993 72.77275086 60.0625 75.4375 C59.31121826 75.98027588 58.55993652 76.52305176 57.78588867 77.08227539 C50.49739589 82.3520552 43.24362403 87.66877818 36 93 C36.56286358 99.2066158 37.99405914 104.60156948 40.0546875 110.46875 C40.35690216 111.34849487 40.65911682 112.22823975 40.9704895 113.13464355 C41.93137941 115.92567172 42.90311909 118.71278267 43.875 121.5 C44.52022309 123.37085529 45.16476065 125.24194716 45.80859375 127.11328125 C49.13313607 136.80422919 49.13313607 136.80422919 52.70751953 146.40429688 C54 150 54 150 54 153 C48.7619542 152.55420887 45.4120493 149.76156654 41.3125 146.75 C40.57499512 146.21858398 39.83749023 145.68716797 39.07763672 145.13964844 C37.51310842 144.01086585 35.95132063 142.87827653 34.39208984 141.7421875 C32.02397426 140.01746074 29.6481516 138.30395291 27.26953125 136.59375 C25.72131765 135.47921738 24.17314012 134.36463468 22.625 133.25 C21.87178467 132.70811035 21.11856934 132.1662207 20.3425293 131.60791016 C17.05114693 129.23295474 13.77638193 126.84630426 10.5625 124.3671875 C9.593125 123.62726563 8.62375 122.88734375 7.625 122.125 C6.81289063 121.48820312 6.00078125 120.85140625 5.1640625 120.1953125 C3.14355137 118.80398229 3.14355137 118.80398229 1.19311523 119.21801758 C-1.60464027 120.21559198 -3.78714386 121.65980069 -6.25390625 123.31640625 C-7.27419922 123.99896484 -8.29449219 124.68152344 -9.34570312 125.38476562 C-10.40724609 126.10341797 -11.46878906 126.82207031 -12.5625 127.5625 C-14.11420898 128.59987305 -14.11420898 128.59987305 -15.69726562 129.65820312 C-21.7382324 133.71703678 -27.67301885 137.89594074 -33.54223633 142.19897461 C-36.68955872 144.50530195 -39.86573807 146.76265508 -43.0625 149 C-43.89297852 149.58974609 -43.89297852 149.58974609 -44.74023438 150.19140625 C-48.76719022 153 -48.76719022 153 -51 153 C-50.44530209 146.85494616 -49.04114862 141.57285823 -46.9453125 135.78515625 C-46.64309784 134.9299791 -46.34088318 134.07480194 -46.0295105 133.19371033 C-45.06891936 130.4805439 -44.09730815 127.77148671 -43.125 125.0625 C-42.16239278 122.35622481 -41.2020508 119.64915341 -40.24191284 116.94200134 C-39.64618239 115.26499418 -39.04859274 113.58864579 -38.44876099 111.9131012 C-37.89793944 110.37241792 -37.35110505 108.83030217 -36.80865479 107.28665161 C-36.24952802 105.70559609 -35.67609881 104.12955226 -35.09124756 102.55783081 C-34.80702942 101.76845123 -34.52281128 100.97907166 -34.22998047 100.16577148 C-33.96990204 99.46121323 -33.70982361 98.75665497 -33.44186401 98.03074646 C-32.92421379 95.65169698 -33.17104642 94.27273863 -34 92 C-35.41259876 90.56256333 -35.41259876 90.56256333 -37.25390625 89.40625 C-37.93541748 88.93944824 -38.61692871 88.47264648 -39.3190918 87.99169922 C-40.0594165 87.49943848 -40.79974121 87.00717773 -41.5625 86.5 C-43.12386312 85.4318291 -44.68372432 84.36145999 -46.2421875 83.2890625 C-47.0372168 82.74411133 -47.83224609 82.19916016 -48.65136719 81.63769531 C-52.23247557 79.14059812 -55.71170777 76.51583017 -59.1875 73.875 C-63.1227151 70.88777621 -67.06733139 67.93004636 -71.11328125 65.09375 C-71.76723877 64.63500488 -72.42119629 64.17625977 -73.0949707 63.70361328 C-74.33806663 62.83664826 -75.58514716 61.97536075 -76.83666992 61.12060547 C-78.25936994 60.12870394 -79.63536727 59.0703838 -81 58 C-81 57.34 -81 56.68 -81 56 C-60.54 56 -40.08 56 -19 56 C-18.67 54.35 -18.34 52.7 -18 51 C-17.4755187 49.27727675 -16.9207142 47.56359953 -16.34179688 45.85839844 C-16.00474731 44.86096619 -15.66769775 43.86353394 -15.32043457 42.83587646 C-14.95687866 41.77113098 -14.59332275 40.7063855 -14.21875 39.609375 C-13.84520386 38.50901917 -13.47165771 37.40866333 -13.08679199 36.27496338 C-12.29816768 33.95459593 -11.50796998 31.63476271 -10.71630859 29.31542969 C-9.50030315 25.75088864 -8.29083829 22.18417521 -7.08203125 18.6171875 C-6.31549462 16.36445044 -5.54858065 14.11184173 -4.78125 11.859375 C-4.41769409 10.78653259 -4.05413818 9.71369019 -3.67956543 8.6083374 C-3.34251587 7.62351379 -3.00546631 6.63869019 -2.65820312 5.62402344 C-2.36143677 4.75308044 -2.06467041 3.88213745 -1.75891113 2.98480225 C-1 1 -1 1 0 0 Z " fill="#0467EB" transform="translate(737,119)"/>
<path d="M0 0 C0.71663818 -0.01401855 1.43327637 -0.02803711 2.17163086 -0.04248047 C9.05589351 0.01943265 14.39821821 2.28806701 19.8125 6.5625 C20.49183594 7.09230469 21.17117188 7.62210938 21.87109375 8.16796875 C22.36738281 8.56628906 22.86367188 8.96460938 23.375 9.375 C23.375 7.065 23.375 4.755 23.375 2.375 C30.305 2.375 37.235 2.375 44.375 2.375 C44.44304001 12.5984483 44.49796769 22.82174381 44.53043652 33.04536819 C44.54602755 37.79367807 44.56714451 42.54182369 44.60131836 47.29003906 C44.63414768 51.88067975 44.65190224 56.47116342 44.65963173 61.06191254 C44.66513324 62.80482196 44.67587517 64.54772375 44.69219017 66.29056549 C44.82479117 81.05590533 43.92558285 94.3656563 33.88671875 106.1171875 C23.7306626 115.84482441 10.82266696 117.85059202 -2.51953125 117.6484375 C-14.57182748 117.20262834 -24.25038741 111.8180704 -32.75 103.4375 C-33.36875 102.756875 -33.9875 102.07625 -34.625 101.375 C-33.07712498 97.54049144 -30.68777254 95.34944301 -27.625 92.625 C-26.738125 91.82578125 -25.85125 91.0265625 -24.9375 90.203125 C-22.625 88.375 -22.625 88.375 -20.625 88.375 C-19.92375 89.096875 -19.2225 89.81875 -18.5 90.5625 C-12.65898847 96.42024795 -8.11867756 98.86737676 0.375 98.9375 C8.0753429 98.803166 13.23695737 97.5956227 18.75 91.9375 C21.61209319 87.4241992 22.62895697 83.91421427 22.5 78.5625 C22.48195313 77.58667969 22.46390625 76.61085938 22.4453125 75.60546875 C22.42210937 74.86941406 22.39890625 74.13335938 22.375 73.375 C21.91351562 73.76171875 21.45203125 74.1484375 20.9765625 74.546875 C13.33692397 80.64650735 5.95650131 84.12398248 -3.96484375 83.69140625 C-14.59009486 82.42760986 -23.30767105 76.76471716 -30.0546875 68.58984375 C-38.3583531 56.8779572 -38.85896491 44.31202343 -37.625 30.375 C-35.18353974 19.91941906 -28.54718045 10.64323522 -19.69140625 4.59375 C-13.27283351 0.80812676 -7.34530256 0.09948491 0 0 Z " fill="#0F1C4C" transform="translate(627.625,697.625)"/>
<path d="M0 0 C6.6 0 13.2 0 20 0 C20 13.2 20 26.4 20 40 C20.66 40 21.32 40 22 40 C22.33 39.01 22.66 38.02 23 37 C25.1796875 35.4296875 25.1796875 35.4296875 27.875 33.875 C29.20144531 33.09769531 29.20144531 33.09769531 30.5546875 32.3046875 C37.92908548 28.37010455 49.9168588 28.70688826 57.9375 31.0625 C59.96484375 31.921875 59.96484375 31.921875 62 33 C63.20849609 33.62648438 63.20849609 33.62648438 64.44140625 34.265625 C69.97641871 37.61198368 73.51977787 41.59419327 77 46.9375 C77.37382813 47.51024658 77.74765625 48.08299316 78.1328125 48.6730957 C82.63137462 56.04886318 83.36914326 63.36394615 83.3125 71.875 C83.30686035 72.75978027 83.3012207 73.64456055 83.29541016 74.55615234 C83.08082388 86.07369868 79.82908634 95.63301304 71.92578125 104.265625 C62.56468901 113.08759675 53.14112961 115.40521251 40.50390625 115.2734375 C31.66428075 114.58361165 25.59689711 109.55199852 19 104 C19 106.97 19 109.94 19 113 C12.73 113 6.46 113 0 113 C0 75.71 0 38.42 0 0 Z " fill="#0470F4" transform="translate(1004,668)"/>
<path d="M0 0 C7.26 0 14.52 0 22 0 C22 15.51 22 31.02 22 47 C38.5 47 55 47 72 47 C72 31.49 72 15.98 72 0 C79.59 0 87.18 0 95 0 C95 37.95 95 75.9 95 115 C87.74 115 80.48 115 73 115 C73 99.16 73 83.32 73 67 C56.17 67 39.34 67 22 67 C22 82.84 22 98.68 22 115 C14.74 115 7.48 115 0 115 C0 77.05 0 39.1 0 0 Z " fill="#0F1B4B" transform="translate(401,667)"/>
<path d="M0 0 C7.26 0 14.52 0 22 0 C22 15.51 22 31.02 22 47 C38.83 47 55.66 47 73 47 C73 31.82 73 16.64 73 1 C79.93 1 86.86 1 94 1 C94 38.29 94 75.58 94 114 C87.07 114 80.14 114 73 114 C73 98.49 73 82.98 73 67 C56.17 67 39.34 67 22 67 C22 82.84 22 98.68 22 115 C14.74 115 7.48 115 0 115 C0 77.05 0 39.1 0 0 Z " fill="#046FF4" transform="translate(807,667)"/>
<path d="M0 0 C9.55888634 6.86381144 15.87859092 16.41607674 17.8125 28.01953125 C17.8125 33.29953125 17.8125 38.57953125 17.8125 44.01953125 C-1.6575 44.01953125 -21.1275 44.01953125 -41.1875 44.01953125 C-37.30944931 53.71465798 -35.08887438 56.75194833 -27.1875 62.01953125 C-19.39867569 62.89727539 -12.0923896 63.26191019 -5.703125 58.2109375 C-4.1875 57.01953125 -4.1875 57.01953125 -1.1875 56.01953125 C-0.8575 55.02953125 -0.5275 54.03953125 -0.1875 53.01953125 C3.99488834 53.56722496 6.41118545 55.91842014 9.5625 58.58203125 C10.54734375 59.40832031 11.5321875 60.23460937 12.546875 61.0859375 C13.29453125 61.72402344 14.0421875 62.36210938 14.8125 63.01953125 C6.65326463 73.00127623 -1.57837096 78.6689438 -14.43896484 80.30615234 C-28.18215341 81.48137775 -39.12134468 78.81016502 -49.78125 69.8359375 C-60.07043816 59.06684318 -62.89183063 46.18138109 -62.56640625 31.76953125 C-61.93228443 20.29624465 -55.61567127 11.05020025 -47.5 3.33203125 C-33.67286968 -7.91541058 -15.382461 -8.65263431 0 0 Z " fill="#0E1B4B" transform="translate(744.1875,702.98046875)"/>
<path d="M0 0 C0.9180542 -0.01482422 1.8361084 -0.02964844 2.78198242 -0.04492188 C11.90758156 0.09239122 19.60411715 2.64411017 26.3125 9 C27.11558594 9.74121094 27.91867187 10.48242188 28.74609375 11.24609375 C33.98396521 16.94528233 36.13455293 23.04845559 36.10205078 30.75146484 C36.10189972 31.95225677 36.10174866 33.15304871 36.10159302 34.39022827 C36.09127045 35.67168732 36.08094788 36.95314636 36.0703125 38.2734375 C36.0665779 39.61007474 36.06373304 40.94671474 36.06173706 42.28335571 C36.05413577 45.78505132 36.03451788 49.2865785 36.0123291 52.78820801 C35.99179474 56.36789675 35.98271918 59.94761296 35.97265625 63.52734375 C35.95126829 70.53913127 35.91717516 77.55080753 35.875 84.5625 C32.72918577 84.59138514 29.58340531 84.60925923 26.4375 84.625 C25.53966797 84.63337891 24.64183594 84.64175781 23.71679688 84.65039062 C22.43579102 84.65522461 22.43579102 84.65522461 21.12890625 84.66015625 C20.33814697 84.66539307 19.5473877 84.67062988 18.73266602 84.67602539 C16.875 84.5625 16.875 84.5625 15.875 83.5625 C15.83407063 81.22952567 15.83258277 78.89544775 15.875 76.5625 C15.22273437 77.04460937 14.57046875 77.52671875 13.8984375 78.0234375 C13.02445313 78.65507813 12.15046875 79.28671875 11.25 79.9375 C10.39148438 80.56398438 9.53296875 81.19046875 8.6484375 81.8359375 C1.14752489 86.50551972 -7.55596819 86.60824936 -16.125 85.5625 C-25.02834765 83.08614845 -30.4578522 77.03642534 -35.0625 69.3125 C-36.74698038 63.36727512 -37.44795461 57.17612601 -35.28125 51.2578125 C-30.97707036 43.78366273 -24.23156151 38.31567184 -16.125 35.5625 C-12.27042181 34.61996162 -8.69385652 34.44605992 -4.73046875 34.46484375 C-2.92739258 34.46967773 -2.92739258 34.46967773 -1.08789062 34.47460938 C0.15798828 34.48298828 1.40386719 34.49136719 2.6875 34.5 C3.95271484 34.50451172 5.21792969 34.50902344 6.52148438 34.51367188 C9.6393711 34.52543749 12.75716133 34.54187728 15.875 34.5625 C15.58899359 32.94643224 15.2927661 31.33217095 14.9921875 29.71875 C14.82831543 28.81962891 14.66444336 27.92050781 14.49560547 26.99414062 C13.50023907 23.09412122 11.45286847 21.54596597 8.1640625 19.49609375 C2.56544315 17.2126978 -5.12356323 17.38546597 -10.71484375 19.578125 C-13.92208561 21.56100079 -16.50399924 23.86231493 -19.125 26.5625 C-22.96163072 25.21320536 -25.77672569 23.48498975 -28.9375 20.9375 C-29.72769531 20.30585937 -30.51789062 19.67421875 -31.33203125 19.0234375 C-32.21955078 18.30027344 -32.21955078 18.30027344 -33.125 17.5625 C-32.39939054 12.69983364 -29.44242605 10.56660504 -25.8046875 7.53515625 C-17.59673432 1.49285836 -10.00892436 0.11378531 0 0 Z " fill="#0E1B4B" transform="translate(544.125,697.4375)"/>
<path d="M0 0 C10.51530163 6.06605261 16.53960806 13.49382419 20.375 25 C21.26115621 37.53693133 20.35293536 49.17201793 12.00390625 59.2578125 C3.6025572 68.24342804 -4.76157172 72.0123517 -17.0625 72.5 C-27.06528961 72.58987646 -34.68731087 69.23129584 -42.35546875 62.66015625 C-47.51096662 57.3364529 -50.35797562 51.98901299 -52.625 45 C-52.97820313 44.20335937 -53.33140625 43.40671875 -53.6953125 42.5859375 C-56.64958525 34.3685906 -54.90756141 25.54654643 -51.30078125 17.85546875 C-40.82111949 -0.00148404 -19.45524661 -9.884672 0 0 Z " fill="#0473F5" transform="translate(987.625,309)"/>
<path d="M0 0 C7.32931396 5.90519266 12.27091217 13.91010171 13.64453125 23.31640625 C14.57969753 35.02396866 11.71977416 44.90325698 4.64453125 54.31640625 C-2.59973985 62.09729002 -10.09254724 66.6468954 -20.703125 67.625 C-31.67017836 68.00556021 -39.51320126 65.29880689 -48.23046875 58.50390625 C-56.25199747 50.99105984 -60.33105697 41.98655217 -60.75805664 31.12890625 C-60.94514595 19.0714583 -57.89111496 10.13003327 -49.35546875 1.31640625 C-34.23083968 -11.97571657 -15.87067571 -11.3437168 0 0 Z " fill="#0359E0" transform="translate(530.35546875,311.68359375)"/>
<path d="M0 0 C7.26 0 14.52 0 22 0 C22.01458252 1.57410645 22.02916504 3.14821289 22.04418945 4.77001953 C22.10222597 10.61839343 22.17945953 16.46638449 22.26245117 22.31445312 C22.29567514 24.84401225 22.32371489 27.37364505 22.34643555 29.90332031 C22.38002704 33.54263667 22.43234754 37.18127934 22.48828125 40.8203125 C22.49467117 41.94865509 22.5010611 43.07699768 22.50764465 44.23953247 C22.63768856 51.20778184 23.27255329 55.94195369 28.0625 61.3125 C31.45024806 64.26311928 33.87852991 64.21709181 38.3125 64.3125 C40.00826172 64.36857422 40.00826172 64.36857422 41.73828125 64.42578125 C46.7625926 63.76991306 48.84182618 61.30359956 52.10766602 57.62768555 C55.22483428 52.82035178 54.60346766 47.13184766 54.609375 41.6015625 C54.62591125 40.41146576 54.64244751 39.22136902 54.65948486 37.99520874 C54.70795532 34.2050866 54.72933489 30.41536572 54.75 26.625 C54.77816029 24.05076107 54.80808779 21.47654083 54.83984375 18.90234375 C54.91371484 12.60159552 54.96329597 6.30106994 55 0 C62.26 0 69.52 0 77 0 C77 27.06 77 54.12 77 82 C70.07 82 63.14 82 56 82 C56 79.03 56 76.06 56 73 C55.28714844 73.55429687 54.57429687 74.10859375 53.83984375 74.6796875 C43.99030139 82.12981241 36.37561956 84.13653649 24 83 C15.24422117 80.65243611 9.4558567 75.06174395 4.39453125 67.76953125 C0.15549533 59.35082966 -0.41808206 51.2961418 -0.29296875 41.9921875 C-0.28872391 40.7855545 -0.28447906 39.57892151 -0.28010559 38.33572388 C-0.26343155 34.51524707 -0.2257995 30.695315 -0.1875 26.875 C-0.17243863 24.270841 -0.15875278 21.66667366 -0.14648438 19.0625 C-0.11356484 12.70812627 -0.06186022 6.35415521 0 0 Z " fill="#0B74F5" transform="translate(914,700)"/>
<path d="M0 0 C5.6980845 2.54378772 10.35080401 7.70719852 13.15234375 13.30078125 C15.46813378 20.67502508 14.8974578 29.86245402 12.0390625 37.03515625 C9.45027072 41.93050311 6.46799836 45.14135945 1.6875 47.9375 C-4.13785522 49.61599218 -8.78431594 49.61122319 -14.625 48 C-20.93279814 44.26204554 -25.22570567 38.76796875 -28 32 C-28.31122909 29.26903486 -28.47866771 26.84431998 -28.4375 24.125 C-28.42847656 23.41609619 -28.41945313 22.70719238 -28.41015625 21.97680664 C-28.18016578 15.03796214 -26.87737708 10.90012315 -22.0234375 6.0078125 C-14.88900943 -0.45208782 -9.6307552 -0.76958089 0 0 Z " fill="#F9FBFD" transform="translate(1052,716)"/>
<path d="M0 0 C5.97305173 2.73053793 9.80594461 7.04657883 12.42578125 13.0625 C14.99969282 20.84340509 14.06590784 27.73792225 10.73828125 35.12109375 C8.08493593 40.28958931 5.13416339 43.19239568 -0.11328125 45.58203125 C-5.7770615 47.40183693 -11.27786809 47.11740858 -16.69921875 44.6875 C-22.74161465 41.19119431 -25.94603551 36.32332301 -27.8828125 29.73828125 C-29.35837064 22.635013 -29.03350939 15.6880081 -25.38671875 9.3125 C-18.65330225 0.13943984 -11.50748221 -3.31475756 0 0 Z " fill="#F9F9FA" transform="translate(638.38671875,716.6875)"/>
<path d="M0 0 C1.11310547 0.02707031 2.22621094 0.05414062 3.37304688 0.08203125 C6.1048912 0.15237917 8.83266464 0.25075729 11.5625 0.375 C12.78600437 12.77997489 12.78600437 12.77997489 9.8515625 16.60546875 C7.81033128 18.09770457 5.84671082 19.29710935 3.5625 20.375 C2.9025 20.705 2.2425 21.035 1.5625 21.375 C-0.89237423 21.55221577 -3.29311664 21.65236821 -5.75 21.6875 C-7.06613281 21.72488281 -8.38226562 21.76226563 -9.73828125 21.80078125 C-13.93972832 21.31719336 -15.50126487 20.34428843 -18.4375 17.375 C-19.55354564 15.14290872 -19.76857534 13.60819244 -19.9375 11.125 C-20.04578125 10.00351562 -20.04578125 10.00351562 -20.15625 8.859375 C-19.16284104 5.42563534 -17.53336386 3.77775612 -14.75927734 1.5703125 C-10.11392191 -0.82123957 -5.0947364 -0.23583943 0 0 Z " fill="#F5F6F8" transform="translate(548.4375,745.625)"/>
<path d="M0 0 C4.68120591 2.75981542 8.19988311 6.13414123 10.65625 11.046875 C10.65625 13.026875 10.65625 15.006875 10.65625 17.046875 C-1.88375 17.046875 -14.42375 17.046875 -27.34375 17.046875 C-25.25518016 8.69259566 -23.84606231 5.70863235 -17.21875 0.671875 C-11.87694872 -2.08630998 -5.54989456 -2.25695712 0 0 Z " fill="#F7F8F9" transform="translate(730.34375,715.953125)"/>
<path d="M0 0 C39.6 0 79.2 0 120 0 C120 1.32 120 2.64 120 4 C80.4 4 40.8 4 0 4 C0 2.68 0 1.36 0 0 Z " fill="#3187F5" transform="translate(962,899)"/>
<path d="M0 0 C39.6 0 79.2 0 120 0 C120 1.32 120 2.64 120 4 C80.4 4 40.8 4 0 4 C0 2.68 0 1.36 0 0 Z " fill="#3186F5" transform="translate(401,899)"/>
<path d="M0 0 C3.50252011 2.04313673 5.77361702 4.09787233 7 8 C7.480151 12.32135899 7.29173086 14.4668367 5.1875 18.3125 C2.9074753 21.11367321 1.34717449 22.80363219 -2.3046875 23.3359375 C-9.26878642 23.44177487 -9.26878642 23.44177487 -13 21.1875 C-16.71969594 17.11908256 -17.49027277 14.62838243 -17.39453125 9.29296875 C-16.72761415 5.41692581 -14.8124343 3.67850886 -12 1 C-8.29778834 -0.85110583 -4.04093083 -0.46454795 0 0 Z " fill="#1A78F2" transform="translate(1041,832)"/>
<path d="M0 0 C4.8036519 0.08282158 7.71965312 0.97809078 11.1484375 4.390625 C13.61903173 8.51352748 13.38602351 12.85651761 12.375 17.4375 C9.47741594 21.35315414 7.13907382 22.97418858 2.32421875 23.78125 C-1.07992508 24.01642401 -3.60080479 24.08282625 -6.546875 22.2265625 C-9.82744786 18.89912432 -11.04725734 15.97518677 -11.3125 11.3125 C-11.08837216 7.43744755 -10.71729369 6.55345873 -8.1875 3.375 C-7.341875 2.735625 -6.49625 2.09625 -5.625 1.4375 C-4.00106095 -0.18643905 -2.24052751 0.11168793 0 0 Z " fill="#146FEE" transform="translate(774.625,831.5625)"/>
<path d="M0 0 C12.61238975 -0.41579307 12.61238975 -0.41579307 18.78125 4.38671875 C20.91419944 7.21014221 20.52065877 10.06878419 20.42578125 13.484375 C19.73386434 17.57239786 18.04478083 19.2384546 15 22 C10.09931037 23.63356321 5.14261524 23.05529694 0 23 C0 15.41 0 7.82 0 0 Z " fill="#257CEE" transform="translate(662,832)"/>
<path d="M0 0 C2.475 0.495 2.475 0.495 5 1 C6.26305335 6.07476794 7.27036084 10.72796354 7 16 C7.66 16 8.32 16 9 16 C9.03738281 15.43152344 9.07476563 14.86304688 9.11328125 14.27734375 C9.56978622 8.91564807 10.63489082 4.8330492 13 0 C14.65 0.33 16.3 0.66 18 1 C18.20496094 1.85464844 18.40992188 2.70929687 18.62109375 3.58984375 C18.89050781 4.69457031 19.15992188 5.79929687 19.4375 6.9375 C19.70433594 8.03964844 19.97117187 9.14179687 20.24609375 10.27734375 C20.72995725 12.89421254 20.72995725 12.89421254 22 14 C22.99 9.71 23.98 5.42 25 1 C26.65 0.67 28.3 0.34 30 0 C29.37650642 2.52121432 28.75124639 5.04196931 28.125 7.5625 C27.95097656 8.26697266 27.77695313 8.97144531 27.59765625 9.69726562 C26.48705185 14.16024998 25.28798784 18.58487052 24 23 C22.35 23 20.7 23 19 23 C17.68 18.05 16.36 13.1 15 8 C14.54625 9.546875 14.0925 11.09375 13.625 12.6875 C12.5724488 16.20431799 11.46154792 19.62719712 10 23 C8.35 23 6.7 23 5 23 C4.16089611 19.73061914 3.32971667 16.45927466 2.5 13.1875 C2.26152344 12.25873047 2.02304688 11.32996094 1.77734375 10.37304688 C1.55175781 9.48037109 1.32617188 8.58769531 1.09375 7.66796875 C0.88427734 6.84578857 0.67480469 6.0236084 0.45898438 5.17651367 C0 3 0 3 0 0 Z " fill="#1977F4" transform="translate(1053,832)"/>
<path d="M0 0 C12.24185013 -0.40357748 12.24185013 -0.40357748 17 3 C17.33 3.33 17.66 3.66 18 4 C17.8125 7.4375 17.8125 7.4375 17 11 C14.94921875 12.22265625 14.94921875 12.22265625 13 13 C13.3609375 13.55429687 13.721875 14.10859375 14.09375 14.6796875 C14.5578125 15.40414062 15.021875 16.12859375 15.5 16.875 C16.19609375 17.95394531 16.19609375 17.95394531 16.90625 19.0546875 C18 21 18 21 18 23 C16.35 23 14.7 23 13 23 C9 16.25 9 16.25 9 14 C7.68 14 6.36 14 5 14 C5 16.97 5 19.94 5 23 C3.35 23 1.7 23 0 23 C0 15.41 0 7.82 0 0 Z " fill="#056AF3" transform="translate(473,832)"/>
<path d="M0 0 C12.72747253 -0.41958701 12.72747253 -0.41958701 17 3 C17.54886514 7.39092112 17.47666082 9.28500878 15 13 C14.34 13 13.68 13 13 13 C13.639375 14.093125 14.27875 15.18625 14.9375 16.3125 C16.26601325 18.5838291 17.15813297 20.47439892 18 23 C15.8125 23.5 15.8125 23.5 13 23 C11.49690488 21.04115592 10.35900374 19.03206416 9.2109375 16.84765625 C8.06038961 14.67562123 8.06038961 14.67562123 5 14 C5 16.97 5 19.94 5 23 C3.35 23 1.7 23 0 23 C0 15.41 0 7.82 0 0 Z " fill="#207CF3" transform="translate(1000,832)"/>
<path d="M0 0 C5 0 5 0 6.4855957 1.28515625 C6.87835693 1.87167969 7.27111816 2.45820312 7.67578125 3.0625 C8.11083984 3.69414063 8.54589844 4.32578125 8.99414062 4.9765625 C9.42919922 5.64429688 9.86425781 6.31203125 10.3125 7 C10.76689453 7.66773438 11.22128906 8.33546875 11.68945312 9.0234375 C12.8081725 10.67207658 13.90613038 12.33476935 15 14 C15.33 9.38 15.66 4.76 16 0 C17.65 0 19.3 0 21 0 C21 7.59 21 15.18 21 23 C16 23 16 23 14.5144043 21.71484375 C14.12164307 21.12832031 13.72888184 20.54179688 13.32421875 19.9375 C12.88916016 19.30585937 12.45410156 18.67421875 12.00585938 18.0234375 C11.57080078 17.35570312 11.13574219 16.68796875 10.6875 16 C10.23310547 15.33226562 9.77871094 14.66453125 9.31054688 13.9765625 C8.1918275 12.32792342 7.09386962 10.66523065 6 9 C5.67 13.62 5.34 18.24 5 23 C3.35 23 1.7 23 0 23 C0 15.41 0 7.82 0 0 Z " fill="#4394F5" transform="translate(795,832)"/>
<path d="M0 0 C5.62143747 1.12428749 6.79023742 2.66236729 9.8125 7.0625 C10.21919922 7.63033203 10.62589844 8.19816406 11.04492188 8.78320312 C12.04255162 10.17988477 13.02301533 11.58879991 14 13 C14.33 8.71 14.66 4.42 15 0 C16.65 0 18.3 0 20 0 C20 7.59 20 15.18 20 23 C14.375 21.875 14.375 21.875 12.32421875 18.83984375 C11.88916016 18.21142578 11.45410156 17.58300781 11.00585938 16.93554688 C10.57080078 16.27619141 10.13574219 15.61683594 9.6875 14.9375 C9.0059082 13.94266602 9.0059082 13.94266602 8.31054688 12.92773438 C7.19397033 11.29400659 6.09520819 9.64812883 5 8 C4.67 12.95 4.34 17.9 4 23 C2.68 23 1.36 23 0 23 C0 15.41 0 7.82 0 0 Z " fill="#4395F3" transform="translate(825,832)"/>
<path d="M0 0 C5.625 1.125 5.625 1.125 7.67578125 4.16015625 C8.11083984 4.78857422 8.54589844 5.41699219 8.99414062 6.06445312 C9.64672852 7.05348633 9.64672852 7.05348633 10.3125 8.0625 C10.76689453 8.72572266 11.22128906 9.38894531 11.68945312 10.07226562 C12.80602967 11.70599341 13.90479181 13.35187117 15 15 C15.33 10.05 15.66 5.1 16 0 C17.32 0 18.64 0 20 0 C20 7.59 20 15.18 20 23 C14.30083696 21.86016739 14.14406322 21.47790822 11 17 C9.91999711 15.55999614 8.83650579 14.12260367 7.75 12.6875 C6.8425 11.470625 5.935 10.25375 5 9 C4.67 13.62 4.34 18.24 4 23 C2.68 23 1.36 23 0 23 C0 15.41 0 7.82 0 0 Z " fill="#1D7FF7" transform="translate(499,832)"/>
<path d="M0 0 C0.85464844 -0.01675781 1.70929687 -0.03351562 2.58984375 -0.05078125 C5.53807282 0.38237089 6.92086823 1.27024789 9.0625 3.3125 C9.0625 3.9725 9.0625 4.6325 9.0625 5.3125 C8.0725 5.6425 7.0825 5.9725 6.0625 6.3125 C5.4025 5.9825 4.7425 5.6525 4.0625 5.3125 C2.14846924 5.11581266 2.14846924 5.11581266 0.0625 5.125 C-0.989375 5.10373047 -0.989375 5.10373047 -2.0625 5.08203125 C-4.18274938 5.14737677 -4.18274938 5.14737677 -5.9375 7.3125 C-6.44716413 13.19586903 -6.44716413 13.19586903 -3.9375 18.3125 C-0.54227658 18.99154468 2.60243431 19.3125 6.0625 19.3125 C6.0625 17.6625 6.0625 16.0125 6.0625 14.3125 C4.0825 14.3125 2.1025 14.3125 0.0625 14.3125 C0.0625 12.9925 0.0625 11.6725 0.0625 10.3125 C3.3625 10.3125 6.6625 10.3125 10.0625 10.3125 C10.0625 13.9425 10.0625 17.5725 10.0625 21.3125 C4.67986892 23.46555243 0.76727628 24.09127702 -4.9375 23.3125 C-8.33238422 21.26142412 -9.74073081 19.60765379 -11.9375 16.3125 C-12.4150733 11.45717144 -12.45091394 9.26851216 -10.125 4.9375 C-6.9366247 1.11144965 -4.8665429 0.02195433 0 0 Z " fill="#207BF2" transform="translate(981.9375,831.6875)"/>
<path d="M0 0 C1.65 0 3.3 0 5 0 C14 17 14 17 14 23 C12.35 22.67 10.7 22.34 9 22 C8.67 20.68 8.34 19.36 8 18 C4.37 18 0.74 18 -3 18 C-3.33 19.65 -3.66 21.3 -4 23 C-5.32 23 -6.64 23 -8 23 C-7.38696372 17.59491957 -5.55619307 13.07560955 -3.4375 8.125 C-3.10814453 7.34125 -2.77878906 6.5575 -2.43945312 5.75 C-1.63203214 3.83091244 -0.81680231 1.9151135 0 0 Z " fill="#1377F3" transform="translate(453,832)"/>
<path d="M0 0 C5.28 0 10.56 0 16 0 C16 1.32 16 2.64 16 4 C12.37 4 8.74 4 5 4 C5 5.65 5 7.3 5 9 C8.3 9 11.6 9 15 9 C15 10.32 15 11.64 15 13 C11.7 13 8.4 13 5 13 C5 14.98 5 16.96 5 19 C8.63 19 12.26 19 16 19 C16 20.32 16 21.64 16 23 C10.72 23 5.44 23 0 23 C0 15.41 0 7.82 0 0 Z " fill="#4291F1" transform="translate(423,832)"/>
<path d="M0 0 C5.28 0 10.56 0 16 0 C16 1.32 16 2.64 16 4 C12.37 4 8.74 4 5 4 C5 5.65 5 7.3 5 9 C8.3 9 11.6 9 15 9 C15 10.32 15 11.64 15 13 C11.37 13 7.74 13 4 13 C4 14.98 4 16.96 4 19 C7.96 19 11.92 19 16 19 C16 20.32 16 21.64 16 23 C10.72 23 5.44 23 0 23 C0 15.41 0 7.82 0 0 Z " fill="#368BF1" transform="translate(854,832)"/>
<path d="M0 0 C1.32 0 2.64 0 4 0 C4.06058594 1.21558594 4.12117187 2.43117188 4.18359375 3.68359375 C4.26798332 5.26824228 4.3526321 6.85287702 4.4375 8.4375 C4.47681641 9.23994141 4.51613281 10.04238281 4.55664062 10.86914062 C4.4054296 14.75239561 4.4054296 14.75239561 6 18 C9.5 18.16666667 9.5 18.16666667 13 18 C15.11925604 15.88074396 14.41831017 11.3803907 14.5625 8.4375 C14.60568359 7.63119141 14.64886719 6.82488281 14.69335938 5.99414062 C14.79975262 3.99631195 14.90040888 1.9981793 15 0 C16.65 0 18.3 0 20 0 C20.1083667 2.7302389 20.18746694 5.45614543 20.25 8.1875 C20.30027344 9.34088867 20.30027344 9.34088867 20.3515625 10.51757812 C20.42066039 14.54253008 20.31755003 16.49808724 18.109375 19.98828125 C15.25419748 22.71127463 13.54508881 23.20643309 9.6875 23.375 C8.92824219 23.42398438 8.16898438 23.47296875 7.38671875 23.5234375 C3.60517249 22.69409675 2.25881311 21.1028959 0 18 C-0.58868119 14.86668512 -0.47531926 11.86122303 -0.3125 8.6875 C-0.28994141 7.85154297 -0.26738281 7.01558594 -0.24414062 6.15429688 C-0.1855061 4.10208851 -0.09583215 2.05080798 0 0 Z " fill="#2C81EE" transform="translate(598,832)"/>
<path d="M0 0 C5 0 10 0 15 0 C16.010625 -0.061875 17.02125 -0.12375 18.0625 -0.1875 C21 0 21 0 22.671875 1.125 C24.58916406 3.83176102 24.29310766 5.91366243 24.1875 9.1875 C24.16042969 10.27417969 24.13335938 11.36085938 24.10546875 12.48046875 C24.07066406 13.31191406 24.03585937 14.14335938 24 15 C22.68 15 21.36 15 20 15 C19.67 11.37 19.34 7.74 19 4 C17.68 4 16.36 4 15 4 C14.67 7.63 14.34 11.26 14 15 C12.68 15 11.36 15 10 15 C9.67 11.37 9.34 7.74 9 4 C7.68 4 6.36 4 5 4 C4.67 7.63 4.34 11.26 4 15 C2.68 15 1.36 15 0 15 C0 10.05 0 5.1 0 0 Z " fill="#2F83F3" transform="translate(585,896)"/>
<path d="M0 0 C0.85464844 -0.01675781 1.70929687 -0.03351562 2.58984375 -0.05078125 C5.5046356 0.37745831 6.87576679 1.38959539 9.0625 3.3125 C8.7325 4.3025 8.4025 5.2925 8.0625 6.3125 C7.5675 6.1475 7.0725 5.9825 6.5625 5.8125 C2.96440467 5.09288093 -0.26289233 5.1346964 -3.9375 5.3125 C-6.12689909 7.09357249 -6.12689909 7.09357249 -6.203125 9.40625 C-6.19796875 10.2003125 -6.1928125 10.994375 -6.1875 11.8125 C-6.19265625 12.6065625 -6.1978125 13.400625 -6.203125 14.21875 C-6.12689909 16.53142751 -6.12689909 16.53142751 -3.9375 18.3125 C0.24233803 18.51475023 4.05297425 18.64900858 8.0625 17.3125 C8.0625 18.6325 8.0625 19.9525 8.0625 21.3125 C3.74775359 23.75850137 -0.06584225 24.02584988 -4.9375 23.3125 C-8.40810168 21.24490751 -10.71475393 19.20305567 -11.9375 15.3125 C-12.417651 10.99114101 -12.22923086 8.8456633 -10.125 5 C-6.96005852 1.11164333 -4.89494836 0.02208247 0 0 Z " fill="#227BF0" transform="translate(747.9375,831.6875)"/>
<path d="M0 0 C3.71317907 1.14770989 5.2692056 1.85342428 7.4375 5.0625 C8.07406938 8.80234509 7.69334708 10.57212644 5.9375 13.9375 C2.90834317 16.51228331 1.23099229 16.80795844 -2.65625 16.546875 C-4.5625 16.0625 -4.5625 16.0625 -7.0625 13.9375 C-8.84051176 10.52964413 -9.27210213 8.84704468 -8.5625 5.0625 C-5.88937913 1.25532785 -4.71546409 0.08272744 0 0 Z " fill="#EFF6FD" transform="translate(1036.5625,834.9375)"/>
<path d="M0 0 C2.9375 1.625 2.9375 1.625 5 4 C5.625 6.9375 5.625 6.9375 5 10 C2.36788535 13.66900829 0.91145674 14.84009531 -3.5625 15.625 C-7 15 -7 15 -9.4375 12.875 C-11.26836859 9.50620179 -11.64250722 7.77472994 -11 4 C-8.05127687 -0.48205916 -5.14006617 -0.7214128 0 0 Z " fill="#2F7CF2" transform="translate(791,896)"/>
<path d="M0 0 C1.94140625 0.37890625 1.94140625 0.37890625 4.44140625 1.94140625 C6.52533443 5.32778954 6.49942722 7.47275943 5.94140625 11.37890625 C4.44140625 13.81640625 4.44140625 13.81640625 1.94140625 15.37890625 C-1.02283998 15.95744123 -2.95951542 15.77244001 -6.05859375 15.37890625 C-8.05859375 13.81640625 -8.05859375 13.81640625 -9.05859375 11.37890625 C-9.44327369 7.78856012 -9.43357876 5.29293221 -8.05859375 1.94140625 C-5.45896059 -0.08955716 -3.24577424 -0.18530203 0 0 Z " fill="#F4F8FD" transform="translate(777.05859375,835.62109375)"/>
<path d="M0 0 C4.66666667 0 9.33333333 0 14 0 C14.99 -0.061875 15.98 -0.12375 17 -0.1875 C20 0 20 0 21.67578125 1.125 C23.58774511 3.83220547 23.29302743 5.9161496 23.1875 9.1875 C23.16042969 10.27417969 23.13335938 11.36085938 23.10546875 12.48046875 C23.07066406 13.31191406 23.03585937 14.14335938 23 15 C21.68 15 20.36 15 19 15 C18.67 11.37 18.34 7.74 18 4 C16.68 4 15.36 4 14 4 C13.67 7.63 13.34 11.26 13 15 C11.68 15 10.36 15 9 15 C9 11.04 9 7.08 9 3 C7.35 3.66 5.7 4.32 4 5 C3.67 8.3 3.34 11.6 3 15 C2.01 15 1.02 15 0 15 C0 10.05 0 5.1 0 0 Z " fill="#287BF1" transform="translate(832,896)"/>
<path d="M0 0 C3.3 0 6.6 0 10 0 C10.66 0.66 11.32 1.32 12 2 C9.36 2.33 6.72 2.66 4 3 C3.67 4.98 3.34 6.96 3 9 C5.31 9 7.62 9 10 9 C10 9.66 10 10.32 10 11 C8.02 11 6.04 11 4 11 C4 13.31 4 15.62 4 18 C7.96 17.505 7.96 17.505 12 17 C11.67 14.36 11.34 11.72 11 9 C13.86724686 9.57344937 14.8614515 9.8614515 17 12 C17.375 15.4375 17.375 15.4375 17 19 C14.62305344 21.53927462 13.25501182 21.9769011 9.765625 22.29296875 C8.60546875 22.25816406 7.4453125 22.22335937 6.25 22.1875 C4.1875 22.125625 2.125 22.06375 0 22 C0 14.74 0 7.48 0 0 Z " fill="#1679F3" transform="translate(573,833)"/>
<path d="M0 0 C0.87269531 -0.02578125 1.74539063 -0.0515625 2.64453125 -0.078125 C5.62654377 0.30665081 6.9646114 1.28100777 9.1875 3.25 C8.8575 4.24 8.5275 5.23 8.1875 6.25 C4.3125 5.375 4.3125 5.375 3.1875 4.25 C-1.83749694 4.53469203 -1.83749694 4.53469203 -5.8125 7.25 C-6.32216413 13.13336903 -6.32216413 13.13336903 -3.8125 18.25 C0.3819205 18.52060777 4.16292684 18.59152439 8.1875 17.25 C8.1875 18.57 8.1875 19.89 8.1875 21.25 C3.89785846 23.6720425 0.03167852 24.12212483 -4.8125 23.25 C-8.15848797 20.60109286 -10.55012279 18.36775892 -11.0859375 14.04296875 C-11.36276203 6.94135486 -11.36276203 6.94135486 -8.375 3.1875 C-7.529375 2.548125 -6.68375 1.90875 -5.8125 1.25 C-4.16400947 -0.39849053 -2.26203365 0.0397429 0 0 Z " fill="#1C7DF4" transform="translate(887.8125,831.75)"/>
<path d="M0 0 C2.4375 1 2.4375 1 4 3 C4.55723448 7.38822151 4.77235685 9.71273859 2.5 13.5 C-1.28726141 15.77235685 -3.61177849 15.55723448 -8 15 C-10.91781637 12.72045596 -10.97820387 11.17436907 -11.4375 7.5 C-11 4 -11 4 -9.4375 1.5625 C-6.08147594 -0.58879747 -3.91578329 -0.48947291 0 0 Z " fill="#1B74F0" transform="translate(575,896)"/>
<path d="M0 0 C1.32 0.33 2.64 0.66 4 1 C4.33 0.67 4.66 0.34 5 0 C7.47357237 -0.15349136 9.90004519 -0.23159885 12.375 -0.25 C13.06078125 -0.270625 13.7465625 -0.29125 14.453125 -0.3125 C17.28813712 -0.33456235 19.47414739 -0.30213003 21.96484375 1.12890625 C23.47768638 3.86344066 23.28743123 6.08963182 23.1875 9.1875 C23.16042969 10.27417969 23.13335938 11.36085938 23.10546875 12.48046875 C23.07066406 13.31191406 23.03585937 14.14335938 23 15 C21.68 15 20.36 15 19 15 C19 11.04 19 7.08 19 3 C17.35 3.66 15.7 4.32 14 5 C13.67 8.3 13.34 11.6 13 15 C12.01 15 11.02 15 10 15 C9.67 11.37 9.34 7.74 9 4 C7.35 4.33 5.7 4.66 4 5 C3.67 8.3 3.34 11.6 3 15 C2.01 15 1.02 15 0 15 C0 10.05 0 5.1 0 0 Z " fill="#1876F3" transform="translate(802,896)"/>
<path d="M0 0 C6.27 0 12.54 0 19 0 C19 1.32 19 2.64 19 4 C16.69 4 14.38 4 12 4 C12 10.27 12 16.54 12 23 C10.35 23 8.7 23 7 23 C7 16.73 7 10.46 7 4 C4.69 4 2.38 4 0 4 C0 2.68 0 1.36 0 0 Z " fill="#3084F2" transform="translate(903,832)"/>
<path d="M0 0 C1.91595968 -0.08133791 3.83291932 -0.13934367 5.75 -0.1875 C7.35101562 -0.23970703 7.35101562 -0.23970703 8.984375 -0.29296875 C12.33624266 0.03266606 13.67946555 0.59021422 16 3 C16.25 6.1875 16.25 6.1875 16 9 C14.35 9.33 12.7 9.66 11 10 C11.350625 10.556875 11.70125 11.11375 12.0625 11.6875 C13.21845993 14.53886783 12.80967438 16.08517222 12 19 C9.36 19 6.72 19 4 19 C4 16.69 4 14.38 4 12 C5.98 12 7.96 12 10 12 C10 11.34 10 10.68 10 10 C7.69 10 5.38 10 3 10 C3 8.02 3 6.04 3 4 C5.31 3.34 7.62 2.68 10 2 C6.7 1.67 3.4 1.34 0 1 C0 0.67 0 0.34 0 0 Z " fill="#2D87F3" transform="translate(573,832)"/>
<path d="M0 0 C7.11111111 -0.35555556 7.11111111 -0.35555556 10.5 1 C12.45454139 3.60605518 12.56403389 5.85092498 12.375 9.05859375 C12 11 12 11 10.5 13.5 C6.85991277 15.68405234 4.20345267 15.28023018 0 15 C0 10.05 0 5.1 0 0 Z " fill="#F4F9FD" transform="translate(666,836)"/>
<path d="M0 0 C19.5018797 3.66635338 19.5018797 3.66635338 25 6 C25.495 6.99 25.495 6.99 26 8 C4.24454021 8.21082443 -17.34161009 8.39516312 -39 6 C-39 5.67 -39 5.34 -39 5 C-23.16 5 -7.32 5 9 5 C6.11604263 3.55802132 3.17569521 3.41166419 0 3 C0 2.01 0 1.02 0 0 Z " fill="#448CF6" transform="translate(768,643)"/>
<path d="M0 0 C2.4375 1 2.4375 1 4 2 C3.67 2.99 3.34 3.98 3 5 C-0.3 4.67 -3.6 4.34 -7 4 C-7 5.32 -7 6.64 -7 8 C-6.38511719 8.18175781 -5.77023437 8.36351562 -5.13671875 8.55078125 C-4.32847656 8.80214844 -3.52023437 9.05351563 -2.6875 9.3125 C-1.48673828 9.67794922 -1.48673828 9.67794922 -0.26171875 10.05078125 C2.1370753 11.05752901 3.41115295 11.95203806 5 14 C4.92396859 17.04125656 4.42608271 18.50574406 2.4375 20.8125 C-1.2332001 22.60078979 -3.9252106 22.32339598 -8 22 C-8.99 21.34 -9.98 20.68 -11 20 C-10.505 18.515 -10.505 18.515 -10 17 C-6.7 17.33 -3.4 17.66 0 18 C0 17.01 0 16.02 0 15 C-3.3 13.35 -6.6 11.7 -10 10 C-10.35915493 3.65492958 -10.35915493 3.65492958 -8.9375 1.0625 C-5.90586445 -0.60000982 -3.38969378 -0.29734156 0 0 Z " fill="#1A70E8" transform="translate(554,889)"/>
<path d="M0 0 C6.28489209 -0.36258993 6.28489209 -0.36258993 9.21875 1.125 C11 3 11 3 11.390625 5.91796875 C11.32101562 7.53638672 11.32101562 7.53638672 11.25 9.1875 C11.21390625 10.27417969 11.1778125 11.36085938 11.140625 12.48046875 C11.07101562 13.72763672 11.07101562 13.72763672 11 15 C9.04196493 15.05389087 7.08351091 15.09274217 5.125 15.125 C4.03445313 15.14820313 2.94390625 15.17140625 1.8203125 15.1953125 C-1 15 -1 15 -3 13 C-2.67028521 9.70285207 -2.3773161 8.3773161 0 6 C3.625 5.875 3.625 5.875 7 6 C7 5.01 7 4.02 7 3 C4.36 3.33 1.72 3.66 -1 4 C-0.67 2.68 -0.34 1.36 0 0 Z " fill="#3D85F2" transform="translate(617,896)"/>
<path d="M0 0 C2.4375 1.6875 2.4375 1.6875 4 4 C4 5.65 4 7.3 4 9 C0.7 9 -2.6 9 -6 9 C-5.67 9.66 -5.34 10.32 -5 11 C-2.36 11 0.28 11 3 11 C3 11.99 3 12.98 3 14 C-0.19954081 15.59977041 -3.52755346 15.48997712 -7 15 C-9 13.5 -9 13.5 -10 11 C-10.49741835 7.46832973 -10.65715177 4.23699157 -8.9375 1 C-5.82090489 -0.60856522 -3.43737531 -0.42213381 0 0 Z " fill="#0E6EF1" transform="translate(695,896)"/>
<path d="M0 0 C3.62716299 0.02604785 5.54755703 0.61005703 8.1875 3.25 C7.8575 4.24 7.5275 5.23 7.1875 6.25 C6.671875 5.899375 6.15625 5.54875 5.625 5.1875 C2.22280841 3.87896477 -0.29775684 4.520525 -3.8125 5.25 C-5.47811399 6.91561399 -4.98365945 8.90962705 -5 11.1875 C-5.01417969 12.08339844 -5.02835938 12.97929688 -5.04296875 13.90234375 C-5.04444769 16.44114534 -5.04444769 16.44114534 -2.8125 18.25 C1.02203269 18.50563551 4.45529887 18.12816497 8.1875 17.25 C8.1875 18.24 8.1875 19.23 8.1875 20.25 C4.48832559 22.71611627 0.48432956 22.96613826 -3.8125 22.25 C-6.6225346 20.45636089 -8.32190468 19.23119065 -9.8125 16.25 C-10.23198626 12.8641466 -10.30664522 9.62931569 -9.8125 6.25 C-7.375 3.1875 -7.375 3.1875 -4.8125 1.25 C-3.8125 0.25 -3.8125 0.25 0 0 Z " fill="#2079F3" transform="translate(765.8125,888.75)"/>
<path d="M0 0 C1.65 0 3.3 0 5 0 C5 6.27 5 12.54 5 19 C8.3 19 11.6 19 15 19 C15 20.32 15 21.64 15 23 C10.05 23 5.1 23 0 23 C0 15.41 0 7.82 0 0 Z " fill="#2B85F5" transform="translate(401,832)"/>
<path d="M0 0 C5.61 0 11.22 0 17 0 C17 1.32 17 2.64 17 4 C14.69 4 12.38 4 10 4 C10 9.94 10 15.88 10 22 C8.68 22 7.36 22 6 22 C6 16.06 6 10.12 6 4 C3.69 4 1.38 4 -1 4 C-0.67 2.68 -0.34 1.36 0 0 Z " fill="#2478ED" transform="translate(666,889)"/>
<path d="M0 0 C0.99 0 1.98 0 3 0 C3 2.64 3 5.28 3 8 C3.66 8 4.32 8 5 8 C5 7.34 5 6.68 5 6 C10.45454545 5.63636364 10.45454545 5.63636364 12.6875 7.125 C14.58347379 9.83353399 14.29278753 11.92358655 14.1875 15.1875 C14.16042969 16.27417969 14.13335938 17.36085938 14.10546875 18.48046875 C14.07066406 19.31191406 14.03585937 20.14335938 14 21 C12.68 21 11.36 21 10 21 C9.67 17.37 9.34 13.74 9 10 C7.35 10.33 5.7 10.66 4 11 C3.67 14.3 3.34 17.6 3 21 C2.01 21 1.02 21 0 21 C0 14.07 0 7.14 0 0 Z " fill="#127AF5" transform="translate(724,890)"/>
<path d="M0 0 C1.32 0 2.64 0 4 0 C4 6.27 4 12.54 4 19 C7.63 19 11.26 19 15 19 C15 20.32 15 21.64 15 23 C10.05 23 5.1 23 0 23 C0 15.41 0 7.82 0 0 Z " fill="#3387F0" transform="translate(640,832)"/>
<path d="M0 0 C1.32 0 2.64 0 4 0 C4.33 3.63 4.66 7.26 5 11 C6.32 11 7.64 11 9 11 C9.33 7.37 9.66 3.74 10 0 C11.32 0 12.64 0 14 0 C14 4.95 14 9.9 14 15 C3.60148285 15.36700649 3.60148285 15.36700649 1.15625 13.875 C-0.52442783 11.14957649 -0.28970839 8.98096012 -0.1875 5.8125 C-0.16042969 4.72582031 -0.13335938 3.63914062 -0.10546875 2.51953125 C-0.07066406 1.68808594 -0.03585937 0.85664062 0 0 Z " fill="#2A7CF0" transform="translate(861,896)"/>
<path d="M0 0 C10.39851715 -0.36700649 10.39851715 -0.36700649 12.84375 1.125 C14.52442783 3.85042351 14.28970839 6.01903988 14.1875 9.1875 C14.16042969 10.27417969 14.13335938 11.36085938 14.10546875 12.48046875 C14.07066406 13.31191406 14.03585937 14.14335938 14 15 C12.68 15 11.36 15 10 15 C9.67 11.37 9.34 7.74 9 4 C7.68 4 6.36 4 5 4 C4.67 7.63 4.34 11.26 4 15 C2.68 15 1.36 15 0 15 C0 10.05 0 5.1 0 0 Z " fill="#3E92F5" transform="translate(882,896)"/>
<path d="M0 0 C12.32142857 -0.26785714 12.32142857 -0.26785714 16 2 C15.67 4.31 15.34 6.62 15 9 C13.875 5.25 13.875 5.25 15 3 C14.01 3.33 13.02 3.66 12 4 C12.185625 4.804375 12.37125 5.60875 12.5625 6.4375 C12.706875 7.283125 12.85125 8.12875 13 9 C12 10 12 10 10.15234375 10.09765625 C8.1015625 10.06510417 6.05078125 10.03255208 4 10 C3.8046875 7.94921875 3.609375 5.8984375 3.4140625 3.84765625 C3.27742188 3.23792969 3.14078125 2.62820313 3 2 C2.34 1.67 1.68 1.34 1 1 C1 7.93 1 14.86 1 22 C1.99 22 2.98 22 4 22 C4 19.36 4 16.72 4 14 C4.33 14 4.66 14 5 14 C5 16.97 5 19.94 5 23 C3.35 23 1.7 23 0 23 C0 15.41 0 7.82 0 0 Z " fill="#4895F4" transform="translate(473,832)"/>
<path d="M0 0 C2.375 0.1875 2.375 0.1875 5 1 C6.86007925 4.27728249 7 6.1659754 7 10 C7.66 10 8.32 10 9 10 C9.12375 8.906875 9.2475 7.81375 9.375 6.6875 C10 3 10 3 12 0 C12.99 0 13.98 0 15 0 C13.66645998 7.51631648 11.54944829 15.45055171 6 21 C3.375 21.125 3.375 21.125 1 21 C1.33 20.01 1.66 19.02 2 18 C2.99 17.67 3.98 17.34 5 17 C4.57102272 11.85227267 3.33643262 8.22150962 0.83984375 3.69921875 C0 2 0 2 0 0 Z " fill="#1B77F9" transform="translate(925,896)"/>
<path d="M0 0 C0.66 0 1.32 0 2 0 C2.33 1.32 2.66 2.64 3 4 C3.66 4 4.32 4 5 4 C5.33 3.01 5.66 2.02 6 1 C6.81604999 2.9151579 7.62770632 4.83218834 8.4375 6.75 C9.11619141 8.35101562 9.11619141 8.35101562 9.80859375 9.984375 C10.73979553 12.3413841 11.4784072 14.52992835 12 17 C10.35 16.67 8.7 16.34 7 16 C6.67 14.68 6.34 13.36 6 12 C2.7 12 -0.6 12 -4 12 C-4 11.67 -4 11.34 -4 11 C-1.36 10.67 1.28 10.34 4 10 C1.69 9.67 -0.62 9.34 -3 9 C-2.44271087 5.65626525 -1.64826111 2.96687001 0 0 Z " fill="#3289F6" transform="translate(455,838)"/>
<path d="M0 0 C1.65 0 3.3 0 5 0 C5 7.59 5 15.18 5 23 C3.35 23 1.7 23 0 23 C0 15.41 0 7.82 0 0 Z " fill="#388EF9" transform="translate(626,832)"/>
<path d="M0 0 C0.25 6.625 0.25 6.625 -2 10 C-2.66 10 -3.32 10 -4 10 C-4 9.34 -4 8.68 -4 8 C-5.299375 8.020625 -6.59875 8.04125 -7.9375 8.0625 C-9.29165633 8.08399454 -10.64756083 8.07148199 -12 8 C-13 7 -13 7 -13.0625 3.4375 C-13.041875 2.303125 -13.02125 1.16875 -13 0 C-11.58800422 -0.39222105 -10.17007236 -0.76311059 -8.75 -1.125 C-7.96109375 -1.33382812 -7.1721875 -1.54265625 -6.359375 -1.7578125 C-3.5796929 -2.04314411 -2.34112451 -1.44977894 0 0 Z " fill="#2C87F4" transform="translate(1017,835)"/>
<path d="M0 0 C0.66 1.32 1.32 2.64 2 4 C0.700625 3.979375 -0.59875 3.95875 -1.9375 3.9375 C-3.29165633 3.91600546 -4.64756083 3.92851801 -6 4 C-7.35618499 5.12534105 -7.35618499 5.12534105 -7.0625 8.0625 C-7.041875 9.031875 -7.02125 10.00125 -7 11 C-4.03 11 -1.06 11 2 11 C1.34 12.32 0.68 13.64 0 15 C-7.24942792 15.60411899 -7.24942792 15.60411899 -10.5625 12.9375 C-12.43625505 9.10852228 -12.12962701 7.06665724 -11 3 C-8.64233488 -1.29927169 -4.33726788 -0.21330826 0 0 Z " fill="#287FF0" transform="translate(716,896)"/>
<path d="M0 0 C0.99 0 1.98 0 3 0 C3 1.32 3 2.64 3 4 C4.65 4 6.3 4 8 4 C8 4.99 8 5.98 8 7 C6.68 7 5.36 7 4 7 C4 9.97 4 12.94 4 16 C5.32 16.33 6.64 16.66 8 17 C8 17.66 8 18.32 8 19 C5.125 19.125 5.125 19.125 2 19 C0 17 0 17 -0.1953125 14.6171875 C-0.16050781 13.25980469 -0.16050781 13.25980469 -0.125 11.875 C-0.10695313 10.96492187 -0.08890625 10.05484375 -0.0703125 9.1171875 C-0.04710937 8.41851563 -0.02390625 7.71984375 0 7 C-0.99 7 -1.98 7 -3 7 C-3 6.01 -3 5.02 -3 4 C-2.01 4 -1.02 4 0 4 C0 2.68 0 1.36 0 0 Z " fill="#388CF7" transform="translate(914,892)"/>
<path d="M0 0 C1.40415083 0.41002121 2.80343572 0.83908368 4.1875 1.3125 C4.1875 1.6425 4.1875 1.9725 4.1875 2.3125 C3.07375 2.415625 1.96 2.51875 0.8125 2.625 C-0.38375 2.851875 -1.58 3.07875 -2.8125 3.3125 C-5.27061625 6.99967438 -5.12368164 8.95595704 -4.8125 13.3125 C-3.8225 14.7975 -3.8225 14.7975 -2.8125 16.3125 C0.75519552 17.04856499 0.75519552 17.04856499 4.1875 17.3125 C4.1875 17.6425 4.1875 17.9725 4.1875 18.3125 C1.5475 18.3125 -1.0925 18.3125 -3.8125 18.3125 C-4.1425 18.9725 -4.4725 19.6325 -4.8125 20.3125 C-8.54813305 16.7636486 -10.20280819 14.48362733 -10.4375 9.25 C-10.22475225 5.64419845 -9.78511617 4.26656583 -7.875 1.0625 C-4.41413445 -0.91513746 -3.72962278 -0.80592795 0 0 Z " fill="#2881F1" transform="translate(773.8125,833.6875)"/>
<path d="M0 0 C2.1519437 3.22791555 2.20086443 4.28400809 2 8 C2.99 7.67 3.98 7.34 5 7 C5.33 7.66 5.66 8.32 6 9 C8.31189655 11.31189655 8.86031239 11.31728515 12 11.375 C15.31872048 11.31214545 16.05916436 10.96055709 19 9 C19.33 10.65 19.66 12.3 20 14 C15.7609119 16.82605874 11.97875497 16.66012246 7 16 C3.60511578 13.94892412 2.19676919 12.29515379 0 9 C-0.1953125 6.73828125 -0.1953125 6.73828125 -0.125 4.3125 C-0.10695313 3.50425781 -0.08890625 2.69601562 -0.0703125 1.86328125 C-0.04710937 1.24839844 -0.02390625 0.63351562 0 0 Z " fill="#297DEE" transform="translate(1024,839)"/>
<path d="M0 0 C1.65 0 3.3 0 5 0 C5.10812003 2.75105422 5.18734945 5.49785087 5.25 8.25 C5.28351562 9.02730469 5.31703125 9.80460938 5.3515625 10.60546875 C5.45112665 16.42997175 5.45112665 16.42997175 2.984375 19.546875 C2.32953125 20.02640625 1.6746875 20.5059375 1 21 C-0.17426264 18.65147472 -0.11508173 17.26225935 -0.09765625 14.6484375 C-0.09443359 13.79765625 -0.09121094 12.946875 -0.08789062 12.0703125 C-0.07951172 11.18085937 -0.07113281 10.29140625 -0.0625 9.375 C-0.05798828 8.4778125 -0.05347656 7.580625 -0.04882812 6.65625 C-0.03702591 4.43743352 -0.02056155 2.21874982 0 0 Z " fill="#348CF6" transform="translate(613,832)"/>
<path d="M0 0 C20.46 0 40.92 0 62 0 C62 0.33 62 0.66 62 1 C42.86 1 23.72 1 4 1 C7.44312589 4.44312589 9.88620256 6.79263746 13.8125 9.3125 C14.60269531 9.82425781 15.39289062 10.33601562 16.20703125 10.86328125 C16.79871094 11.23839844 17.39039063 11.61351562 18 12 C17.01 12.33 16.02 12.66 15 13 C13.2824707 12.13549805 13.2824707 12.13549805 11.42578125 10.76171875 C10.75869141 10.27123047 10.09160156 9.78074219 9.40429688 9.27539062 C8.71400391 8.75138672 8.02371094 8.22738281 7.3125 7.6875 C6.61060547 7.17509766 5.90871094 6.66269531 5.18554688 6.13476562 C1.3685942 3.28967067 1.3685942 3.28967067 0 2 C0 1.34 0 0.68 0 0 Z " fill="#1463E8" transform="translate(656,175)"/>
<path d="M0 0 C3.3 0 6.6 0 10 0 C10 1.32 10 2.64 10 4 C10.66 2.68 11.32 1.36 12 0 C12.33 0.33 12.66 0.66 13 1 C12.8125 4.4375 12.8125 4.4375 12 8 C9.94921875 9.22265625 9.94921875 9.22265625 8 10 C8.3609375 10.55429687 8.721875 11.10859375 9.09375 11.6796875 C9.5578125 12.40414062 10.021875 13.12859375 10.5 13.875 C10.9640625 14.59429688 11.428125 15.31359375 11.90625 16.0546875 C13 18 13 18 13 20 C11.35 20 9.7 20 8 20 C4.92307692 13.6 4.92307692 13.6 5.3125 10.5625 C5.539375 10.046875 5.76625 9.53125 6 9 C3.03 8.505 3.03 8.505 0 8 C0 7.67 0 7.34 0 7 C3.465 6.505 3.465 6.505 7 6 C7 4.68 7 3.36 7 2 C4.69 1.67 2.38 1.34 0 1 C0 0.67 0 0.34 0 0 Z " fill="#388CF3" transform="translate(478,835)"/>
<path d="M0 0 C4.62 0 9.24 0 14 0 C14 0.66 14 1.32 14 2 C10.37 2 6.74 2 3 2 C2.20873989 8.33008086 1.95202245 13.7121347 3 20 C4.0209375 19.7525 4.0209375 19.7525 5.0625 19.5 C8.4164822 18.92910941 11.60389805 18.93340977 15 19 C15 19.66 15 20.32 15 21 C10.05 21 5.1 21 0 21 C0 14.07 0 7.14 0 0 Z " fill="#036EF4" transform="translate(424,833)"/>
<path d="M0 0 C0.33 0 0.66 0 1 0 C1.13277344 0.63808594 1.26554688 1.27617188 1.40234375 1.93359375 C1.57894531 2.75988281 1.75554688 3.58617187 1.9375 4.4375 C2.11152344 5.26121094 2.28554688 6.08492187 2.46484375 6.93359375 C2.80752994 8.97661204 2.80752994 8.97661204 4 10 C10.08468557 10.23376923 10.08468557 10.23376923 16 9 C16 10.32 16 11.64 16 13 C11.70526483 15.4249185 7.84921708 15.86285001 3 15 C-0.0625 12.6875 -0.0625 12.6875 -2 10 C-2 9.01 -2 8.02 -2 7 C-1.34 7 -0.68 7 0 7 C0 4.69 0 2.38 0 0 Z " fill="#247EEF" transform="translate(880,840)"/>
<path d="M0 0 C0.99 0 1.98 0 3 0 C3 7.26 3 14.52 3 22 C1.68 22 0.36 22 -1 22 C-1.02887814 18.52085059 -1.04675687 15.04173169 -1.0625 11.5625 C-1.07087891 10.56927734 -1.07925781 9.57605469 -1.08789062 8.55273438 C-1.09111328 7.60849609 -1.09433594 6.66425781 -1.09765625 5.69140625 C-1.10289307 4.81685791 -1.10812988 3.94230957 -1.11352539 3.04125977 C-1 1 -1 1 0 0 Z " fill="#3785F1" transform="translate(635,889)"/>
<path d="M0 0 C3.96 0 7.92 0 12 0 C11.34 0.66 10.68 1.32 10 2 C7.69 2 5.38 2 3 2 C3 7.61 3 13.22 3 19 C5.31 19 7.62 19 10 19 C10 19.33 10 19.66 10 20 C6.7 20 3.4 20 0 20 C0 13.4 0 6.8 0 0 Z " fill="#0A6FF2" transform="translate(663,833)"/>
<path d="M0 0 C0.99 0 1.98 0 3 0 C3 6.93 3 13.86 3 21 C1.35 20.67 -0.3 20.34 -2 20 C-3.3125 17.4375 -3.3125 17.4375 -4 15 C-3.01 14.67 -2.02 14.34 -1 14 C-0.67 9.38 -0.34 4.76 0 0 Z " fill="#036BF6" transform="translate(841,833)"/>
<path d="M0 0 C1.65 0.33 3.3 0.66 5 1 C5.66 3.97 6.32 6.94 7 10 C6.34 9.67 5.68 9.34 5 9 C4.01 10.485 4.01 10.485 3 12 C2.67 10.68 2.34 9.36 2 8 C1.34 9.65 0.68 11.3 0 13 C-0.66 13 -1.32 13 -2 13 C-2.66 13.99 -3.32 14.98 -4 16 C-3.6083965 10.04492601 -2.62875405 5.37180176 0 0 Z " fill="#2882F6" transform="translate(1066,832)"/>
<path d="M0 0 C1.32 0.33 2.64 0.66 4 1 C3.67 1.99 3.34 2.98 3 4 C-3.1197887 4.0248244 -9.23954771 4.04291879 -15.359375 4.05493164 C-17.43880728 4.05994271 -19.51823607 4.06675335 -21.59765625 4.07543945 C-24.59636297 4.08764683 -27.59502286 4.09326071 -30.59375 4.09765625 C-31.51490601 4.10281754 -32.43606201 4.10797882 -33.38513184 4.11329651 C-38.68503511 4.11375124 -43.75541013 3.77330942 -49 3 C-49 2.67 -49 2.34 -49 2 C-33.16 2 -17.32 2 -1 2 C-0.67 1.34 -0.34 0.68 0 0 Z " fill="#297CF0" transform="translate(778,646)"/>
<path d="M0 0 C2.5 0.25 2.5 0.25 4.5 2.25 C4.75 4.75 4.75 4.75 4.5 7.25 C2.5 9.25 2.5 9.25 0 9.5 C-2.5 9.25 -2.5 9.25 -4.5 7.25 C-4.75 4.75 -4.75 4.75 -4.5 2.25 C-2.5 0.25 -2.5 0.25 0 0 Z " fill="#E8F2FC" transform="translate(571.5,898.75)"/>
<path d="M0 0 C2.5 0.25 2.5 0.25 4.5 2.25 C4.75 4.75 4.75 4.75 4.5 7.25 C2.5 9.25 2.5 9.25 0 9.5 C-2.5 9.25 -2.5 9.25 -4.5 7.25 C-4.75 4.75 -4.75 4.75 -4.5 2.25 C-2.5 0.25 -2.5 0.25 0 0 Z " fill="#1675F1" transform="translate(945.5,839.75)"/>
<path d="M0 0 C2.5 0.25 2.5 0.25 4.5 2.25 C4.75 4.75 4.75 4.75 4.5 7.25 C2.5 9.25 2.5 9.25 0 9.5 C-2.5 9.25 -2.5 9.25 -4.5 7.25 C-4.75 4.75 -4.75 4.75 -4.5 2.25 C-2.5 0.25 -2.5 0.25 0 0 Z " fill="#1273F5" transform="translate(709.5,839.75)"/>
<path d="M0 0 C5.56818182 0.56818182 5.56818182 0.56818182 7 2 C7.1875 4.4375 7.1875 4.4375 7 7 C5 9 5 9 2.5 9.25 C0 9 0 9 -2 7 C-2.25 4.5 -2.25 4.5 -2 2 C-1.34 1.34 -0.68 0.68 0 0 Z " fill="#146FEC" transform="translate(543,840)"/>
<path d="M0 0 C2.33944736 0.28730055 4.6739143 0.61936779 7 1 C7.04241723 3.33294775 7.04092937 5.66702567 7 8 C6 9 6 9 2.9375 9.0625 C1.968125 9.041875 0.99875 9.02125 0 9 C-1.36623674 6.26752652 -1.128426 4.01801098 -1 1 C-0.67 0.67 -0.34 0.34 0 0 Z " fill="#EBF3FC" transform="translate(785,899)"/>
<path d="M0 0 C1.32 0 2.64 0 4 0 C3.67 6.93 3.34 13.86 3 21 C2.01 21 1.02 21 0 21 C0 14.07 0 7.14 0 0 Z " fill="#0374F8" transform="translate(796,833)"/>
<path d="M0 0 C0.66 0 1.32 0 2 0 C2.33 5.94 2.66 11.88 3 18 C6.3 18.33 9.6 18.66 13 19 C13 19.66 13 20.32 13 21 C8.71 21 4.42 21 0 21 C0 14.07 0 7.14 0 0 Z " fill="#0169F6" transform="translate(641,833)"/>
<path d="M0 0 C0.33 0 0.66 0 1 0 C1.33 1.98 1.66 3.96 2 6 C4.31 6 6.62 6 9 6 C9.66 4.02 10.32 2.04 11 0 C11.66 0 12.32 0 13 0 C13.48309179 6.40096618 13.48309179 6.40096618 11.4375 8.9375 C8.09741776 10.39343329 5.60384106 10.3931463 2 10 C0.0625 8.875 0.0625 8.875 -1 7 C-1.25 3.875 -1.25 3.875 -1 1 C-0.67 0.67 -0.34 0.34 0 0 Z " fill="#126BEC" transform="translate(782,901)"/>
<path d="M0 0 C5.45454545 -0.36363636 5.45454545 -0.36363636 7.6875 1.125 C9.58347379 3.83353399 9.29278753 5.92358655 9.1875 9.1875 C9.16042969 10.27417969 9.13335938 11.36085938 9.10546875 12.48046875 C9.07066406 13.31191406 9.03585937 14.14335938 9 15 C7.68 15 6.36 15 5 15 C5 10.71 5 6.42 5 2 C3.35 2 1.7 2 0 2 C0 1.34 0 0.68 0 0 Z " fill="#2574E8" transform="translate(729,896)"/>
<path d="M0 0 C1.32 0 2.64 0 4 0 C4 4.95 4 9.9 4 15 C2.68 15 1.36 15 0 15 C0 10.05 0 5.1 0 0 Z " fill="#3882F4" transform="translate(902,896)"/>
<path d="M0 0 C1.32 0 2.64 0 4 0 C4 4.95 4 9.9 4 15 C2.68 15 1.36 15 0 15 C0 10.05 0 5.1 0 0 Z " fill="#3B88F5" transform="translate(645,896)"/>
<path d="M0 0 C2.25 0.125 2.25 0.125 5 1 C6.39712274 2.95597184 7.73779907 4.95436401 9 7 C9.66 7 10.32 7 11 7 C11.33 8.98 11.66 10.96 12 13 C8.61236761 12.71330918 7.31140782 12.34152464 4.98046875 9.78515625 C4.09294922 8.43744141 4.09294922 8.43744141 3.1875 7.0625 C2.58292969 6.16660156 1.97835938 5.27070312 1.35546875 4.34765625 C0 2 0 2 0 0 Z " fill="#156FEE" transform="translate(505,840)"/>
<path d="M0 0 C2.475 0.495 2.475 0.495 5 1 C5.36552803 2.41377782 5.71695495 3.83120576 6.0625 5.25 C6.25972656 6.03890625 6.45695312 6.8278125 6.66015625 7.640625 C7.02253257 10.15643302 6.98878961 11.66003714 6 14 C5.01 14.33 4.02 14.66 3 15 C2.49564306 13.0636296 1.99666126 11.12585854 1.5 9.1875 C1.2215625 8.10855469 0.943125 7.02960937 0.65625 5.91796875 C0 3 0 3 0 0 Z " fill="#2882F3" transform="translate(1053,832)"/>
<path d="M0 0 C0.33 0 0.66 0 1 0 C1 1.65 1 3.3 1 5 C-2.3 5 -5.6 5 -9 5 C-8.67 5.66 -8.34 6.32 -8 7 C-5.36 7 -2.72 7 0 7 C0 7.99 0 8.98 0 10 C-3.21451269 11.60725635 -6.43612536 11.05748185 -10 11 C-11.0625 9.1875 -11.0625 9.1875 -12 7 C-11.67 6.01 -11.34 5.02 -11 4 C-7.37 4 -3.74 4 0 4 C0 2.68 0 1.36 0 0 Z " fill="#337FF3" transform="translate(698,900)"/>
<path d="M0 0 C2.26360165 3.39540247 2.19664788 4.48282063 2.0625 8.4375 C1.94984244 12.0376437 2.10995549 14.43982195 3 18 C6.63 18.33 10.26 18.66 14 19 C14 19.66 14 20.32 14 21 C9.38 21 4.76 21 0 21 C0 14.07 0 7.14 0 0 Z " fill="#016CF3" transform="translate(855,833)"/>
<path d="M0 0 C2.86724686 0.57344937 3.8614515 0.8614515 6 3 C6.125 6.625 6.125 6.625 6 10 C4.02 10.99 4.02 10.99 2 12 C1.67 11.67 1.34 11.34 1 11 C-0.34747084 10.76924918 -1.70377565 10.58846937 -3.0625 10.4375 C-4.361875 10.293125 -5.66125 10.14875 -7 10 C-7 9.67 -7 9.34 -7 9 C-4.36 8.67 -1.72 8.34 1 8 C0.67 5.36 0.34 2.72 0 0 Z " fill="#257BF3" transform="translate(584,842)"/>
<path d="M0 0 C2.375 -0.1875 2.375 -0.1875 5 0 C7.4294516 3.6441774 7.16179575 5.71241272 7 10 C6.34 10 5.68 10 5 10 C4.67 8.68 4.34 7.36 4 6 C3.34 6 2.68 6 2 6 C1.67 6.99 1.34 7.98 1 9 C0.67 8.01 0.34 7.02 0 6 C-0.99 6.495 -0.99 6.495 -2 7 C-1.34 4.69 -0.68 2.38 0 0 Z " fill="#1A77F2" transform="translate(453,832)"/>
<path d="M0 0 C2.0625 0.4375 2.0625 0.4375 4 1 C3 4 3 4 1.234375 5.1796875 C-1.25718223 6.09442005 -3.10616836 6.20275975 -5.75 6.125 C-6.54921875 6.10695313 -7.3484375 6.08890625 -8.171875 6.0703125 C-8.77515625 6.04710937 -9.3784375 6.02390625 -10 6 C-10 5.01 -10 4.02 -10 3 C-9.04287109 2.80083984 -9.04287109 2.80083984 -8.06640625 2.59765625 C-7.24011719 2.42105469 -6.41382813 2.24445312 -5.5625 2.0625 C-4.73878906 1.88847656 -3.91507813 1.71445312 -3.06640625 1.53515625 C-1.02338796 1.19247006 -1.02338796 1.19247006 0 0 Z " fill="#1073F4" transform="translate(753,849)"/>
<path d="M0 0 C1.60875 -0.04125 3.2175 -0.0825 4.875 -0.125 C5.77992188 -0.14820313 6.68484375 -0.17140625 7.6171875 -0.1953125 C10 0 10 0 12 2 C9.36 2.33 6.72 2.66 4 3 C3.67 4.98 3.34 6.96 3 9 C5.31 9 7.62 9 10 9 C10 9.66 10 10.32 10 11 C7.03 11 4.06 11 1 11 C0.67 7.37 0.34 3.74 0 0 Z " fill="#036DF4" transform="translate(573,833)"/>
<path d="M0 0 C0.680625 0.2475 1.36125 0.495 2.0625 0.75 C2.805 0.935625 3.5475 1.12125 4.3125 1.3125 C4.89 1.456875 5.4675 1.60125 6.0625 1.75 C6.0625 3.07 6.0625 4.39 6.0625 5.75 C4.0825 6.08 2.1025 6.41 0.0625 6.75 C-0.2675 5.76 -0.5975 4.77 -0.9375 3.75 C-1.5975 3.75 -2.2575 3.75 -2.9375 3.75 C-3.2675 5.07 -3.5975 6.39 -3.9375 7.75 C-4.625 5.4375 -4.625 5.4375 -4.9375 2.75 C-3.460153 0.41734684 -2.80307054 -0.36168652 0 0 Z " fill="#428AF2" transform="translate(618.9375,902.25)"/>
<path d="M0 0 C1.32 0 2.64 0 4 0 C4 4.29 4 8.58 4 13 C3.01 13 2.02 13 1 13 C0 12 0 12 -0.09765625 9.27734375 C-0.08605469 8.17519531 -0.07445312 7.07304688 -0.0625 5.9375 C-0.05347656 4.83277344 -0.04445313 3.72804688 -0.03515625 2.58984375 C-0.02355469 1.73519531 -0.01195312 0.88054688 0 0 Z " fill="#3184F3" transform="translate(861,896)"/>
<path d="M0 0 C2.64 0 5.28 0 8 0 C8.38218767 1.65614657 8.71395102 3.32457024 9 5 C8 6 8 6 6.15234375 6.09765625 C4.1015625 6.06510417 2.05078125 6.03255208 0 6 C0 4.02 0 2.04 0 0 Z " fill="#EEF7FD" transform="translate(577,845)"/>
<path d="M0 0 C1.32 0.33 2.64 0.66 4 1 C4 4.96 4 8.92 4 13 C2.68 13 1.36 13 0 13 C0 8.71 0 4.42 0 0 Z " fill="#2E86F6" transform="translate(851,898)"/>
<path d="M0 0 C1.32 0.33 2.64 0.66 4 1 C4 4.96 4 8.92 4 13 C2.68 13 1.36 13 0 13 C0 8.71 0 4.42 0 0 Z " fill="#2882F6" transform="translate(821,898)"/>
<path d="M0 0 C0.33 0 0.66 0 1 0 C2.05619003 4.28297531 2.11702092 8.42985646 2.0625 12.8125 C2.05798828 13.50537109 2.05347656 14.19824219 2.04882812 14.91210938 C2.03713156 16.60811068 2.01919924 18.30406703 2 20 C1.01 20 0.02 20 -1 20 C-1.02712351 17.60408962 -1.0468982 15.20849043 -1.0625 12.8125 C-1.07087891 12.13896484 -1.07925781 11.46542969 -1.08789062 10.77148438 C-1.10606538 7.04565869 -0.89299392 3.6211958 0 0 Z " fill="#0265F2" transform="translate(826,834)"/>
<path d="M0 0 C5.61 0 11.22 0 17 0 C17 1.32 17 2.64 17 4 C14.69 4 12.38 4 10 4 C10 6.31 10 8.62 10 11 C9.67 11 9.34 11 9 11 C9 8.36 9 5.72 9 3 C4.545 2.01 4.545 2.01 0 1 C0 0.67 0 0.34 0 0 Z " fill="#4995F4" transform="translate(666,889)"/>
<path d="M0 0 C2.31 0 4.62 0 7 0 C7.38218767 1.65614657 7.71395102 3.32457024 8 5 C7 6 7 6 3.4375 6.0625 C2.303125 6.041875 1.16875 6.02125 0 6 C0 4.02 0 2.04 0 0 Z " fill="#F2F8FD" transform="translate(1005,836)"/>
<path d="M0 0 C2.31 0 4.62 0 7 0 C7.38218767 1.65614657 7.71395102 3.32457024 8 5 C7 6 7 6 3.4375 6.0625 C2.303125 6.041875 1.16875 6.02125 0 6 C0 4.02 0 2.04 0 0 Z " fill="#F5FAFE" transform="translate(478,836)"/>
<path d="M0 0 C0.99 0 1.98 0 3 0 C3 5.28 3 10.56 3 16 C2.34 16 1.68 16 1 16 C-0.14077657 12.57767028 -0.09815117 9.91326783 -0.0625 6.3125 C-0.05347656 5.13300781 -0.04445313 3.95351563 -0.03515625 2.73828125 C-0.02355469 1.83464844 -0.01195312 0.93101562 0 0 Z " fill="#056CF1" transform="translate(599,833)"/>
<path d="M0 0 C0.33 0 0.66 0 1 0 C1 3.63 1 7.26 1 11 C-2.63 11 -6.26 11 -10 11 C-10 9.35 -10 7.7 -10 6 C-9.34 6 -8.68 6 -8 6 C-7.67 6.66 -7.34 7.32 -7 8 C-5.02 8 -3.04 8 -1 8 C-0.67 5.36 -0.34 2.72 0 0 Z " fill="#1F6FF0" transform="translate(626,900)"/>
<path d="M0 0 C0.99 0.99 1.98 1.98 3 3 C2.67 3.99 2.34 4.98 2 6 C-0.97 6 -3.94 6 -7 6 C-6.67 4.68 -6.34 3.36 -6 2 C-2.9375 0.75 -2.9375 0.75 0 0 Z " fill="#428FF6" transform="translate(695,897)"/>
<path d="M0 0 C2.93200474 2.85276137 5.64315404 5.65079784 8 9 C7.34 10.32 6.68 11.64 6 13 C2.67148787 10.01581671 0.6794271 7.15437231 -1 3 C-0.67 2.01 -0.34 1.02 0 0 Z " fill="#167DF7" transform="translate(831,836)"/>
<path d="M0 0 C7.38461538 -0.36923077 7.38461538 -0.36923077 10.5 1.5 C10.995 1.995 11.49 2.49 12 3 C11.67 3.99 11.34 4.98 11 6 C7.30099992 5.11223998 3.65449539 4.05418136 0 3 C0 2.01 0 1.02 0 0 Z " fill="#2477ED" transform="translate(745,832)"/>
<path d="M0 0 C3.26023324 0.22484367 4.93132641 0.5260489 7.625 2.25 C7.295 3.24 6.965 4.23 6.625 5.25 C3.325 4.92 0.025 4.59 -3.375 4.25 C-3.705 5.24 -4.035 6.23 -4.375 7.25 C-5 4.875 -5 4.875 -5.375 2.25 C-3.375 0.25 -3.375 0.25 0 0 Z " fill="#297EF3" transform="translate(550.375,888.75)"/>
<path d="M0 0 C1.80307617 0.00483398 1.80307617 0.00483398 3.64257812 0.00976562 C4.88845703 0.01814453 6.13433594 0.02652344 7.41796875 0.03515625 C8.68318359 0.03966797 9.94839844 0.04417969 11.25195312 0.04882812 C14.36983985 0.06059374 17.48763008 0.07703353 20.60546875 0.09765625 C20.60546875 0.42765625 20.60546875 0.75765625 20.60546875 1.09765625 C19.92967773 1.1227124 19.25388672 1.14776855 18.55761719 1.17358398 C15.49005195 1.28976367 12.42277717 1.41239062 9.35546875 1.53515625 C8.29199219 1.57447266 7.22851562 1.61378906 6.1328125 1.65429688 C5.10800781 1.69619141 4.08320312 1.73808594 3.02734375 1.78125 C2.0847168 1.81790771 1.14208984 1.85456543 0.17089844 1.89233398 C-2.14310069 2.07753319 -4.16253275 2.49290366 -6.39453125 3.09765625 C-7.80987903 3.16222504 -9.22790814 3.18376664 -10.64453125 3.16015625 C-12.50078125 3.12921875 -12.50078125 3.12921875 -14.39453125 3.09765625 C-9.7121171 -0.02395319 -5.53359302 -0.02622556 0 0 Z " fill="#51587B" transform="translate(539.39453125,731.90234375)"/>
<path d="M0 0 C0.66 0.33 1.32 0.66 2 1 C-1.27378495 5.83950819 -5.70944153 9.52237931 -11 12 C-13.13867188 11.56494141 -13.13867188 11.56494141 -15 11 C-13.50146484 9.93458984 -13.50146484 9.93458984 -11.97265625 8.84765625 C-10.66923542 7.91932055 -9.36585193 6.99093243 -8.0625 6.0625 C-7.40314453 5.59392578 -6.74378906 5.12535156 -6.06445312 4.64257812 C-2.89795165 2.48544482 -2.89795165 2.48544482 0 0 Z " fill="#1E7CF7" transform="translate(868,241)"/>
<path d="M0 0 C0.66 0 1.32 0 2 0 C3.38226016 2.76452033 3.09525387 5.0461363 3.0625 8.125 C3.05347656 9.22070312 3.04445313 10.31640625 3.03515625 11.4453125 C3.02355469 12.28835938 3.01195312 13.13140625 3 14 C2.01 14 1.02 14 0 14 C0 9.38 0 4.76 0 0 Z " fill="#126FEE" transform="translate(832,897)"/>
<path d="M0 0 C1.4540625 0.0309375 1.4540625 0.0309375 2.9375 0.0625 C2.9375 2.3725 2.9375 4.6825 2.9375 7.0625 C0.5625 6.875 0.5625 6.875 -2.0625 6.0625 C-3.375 3.5 -3.375 3.5 -4.0625 1.0625 C-3.0625 0.0625 -3.0625 0.0625 0 0 Z " fill="#0B6EEF" transform="translate(841.0625,846.9375)"/>
<path d="M0 0 C2.375 0.1875 2.375 0.1875 5 1 C6.59642719 3.68490027 7.12740282 5.21434929 6.625 8.3125 C6.41875 8.869375 6.2125 9.42625 6 10 C5.01 9.67 4.02 9.34 3 9 C2.05078125 6.93359375 2.05078125 6.93359375 1.3125 4.4375 C1.06113281 3.61121094 0.80976562 2.78492188 0.55078125 1.93359375 C0.36902344 1.29550781 0.18726563 0.65742187 0 0 Z " fill="#357FF2" transform="translate(925,896)"/>
<path d="M0 0 C2.97 0 5.94 0 9 0 C9 2.97 9 5.94 9 9 C8.34 8.67 7.68 8.34 7 8 C7 6.35 7 4.7 7 3 C4.69 3 2.38 3 0 3 C0 2.01 0 1.02 0 0 Z " fill="#076AF4" transform="translate(982,843)"/>
<path d="M0 0 C2.31 0 4.62 0 7 0 C7.5625 1.9375 7.5625 1.9375 8 4 C7 5 7 5 3.4375 5.0625 C2.303125 5.041875 1.16875 5.02125 0 5 C0 3.35 0 1.7 0 0 Z " fill="#EDF7FD" transform="translate(577,836)"/>
<path d="M0 0 C4.15153964 3.41019328 6.53086442 7.88055823 8 13 C7.60546875 15.28125 7.60546875 15.28125 7 17 C7 16.01 7 15.02 7 14 C6.34 14 5.68 14 5 14 C5 12.35 5 10.7 5 9 C4.34 9 3.68 9 3 9 C3 8.34 3 7.68 3 7 C2.34 7 1.68 7 1 7 C-0.0625 4.625 -0.0625 4.625 -1 2 C-0.67 1.34 -0.34 0.68 0 0 Z " fill="#3073E9" transform="translate(535,317)"/>
<path d="M0 0 C1 1.33333333 2 2.66666667 3 4 C3.556875 4.70125 4.11375 5.4025 4.6875 6.125 C6 8 6 8 6 10 C3.6875 10.3125 3.6875 10.3125 1 10 C-0.9375 7.8125 -0.9375 7.8125 -2 5 C-1.1875 2.1875 -1.1875 2.1875 0 0 Z " fill="#257FF6" transform="translate(1012,845)"/>
<path d="M0 0 C2.74277578 3.19990508 4.6302836 6.00499382 6 10 C4.35 10 2.7 10 1 10 C-0.625 6.6875 -0.625 6.6875 -2 3 C-1.34 2.01 -0.68 1.02 0 0 Z " fill="#247EF5" transform="translate(485,845)"/>
<path d="M0 0 C0.99 0 1.98 0 3 0 C2.71758359 1.46015291 2.42373386 2.91809793 2.125 4.375 C1.96257813 5.18710937 1.80015625 5.99921875 1.6328125 6.8359375 C1 9 1 9 -1 11 C-1.66 10.67 -2.32 10.34 -3 10 C-2.25 3.375 -2.25 3.375 0 0 Z " fill="#498FF1" transform="translate(937,896)"/>
<path d="M0 0 C0.33 0 0.66 0 1 0 C1.05391993 1.79133978 1.09275571 3.58313899 1.125 5.375 C1.14820313 6.37273438 1.17140625 7.37046875 1.1953125 8.3984375 C1 11 1 11 -1 13 C-2.32 12.67 -3.64 12.34 -5 12 C-3.35 8.04 -1.7 4.08 0 0 Z " fill="#0562EE" transform="translate(785,839)"/>
<path d="M0 0 C0.66 0.33 1.32 0.66 2 1 C-1.72346836 5.42094803 -5.29521038 9.57833482 -10 13 C-10.66 12.67 -11.32 12.34 -12 12 C-8.04 8.04 -4.08 4.08 0 0 Z " fill="#2366E7" transform="translate(532,386)"/>
<path d="M0 0 C2 2 2 2 2.125 5.625 C2.08375 6.73875 2.0425 7.8525 2 9 C3.65 9.33 5.3 9.66 7 10 C7 10.66 7 11.32 7 12 C5.00045254 12.04254356 2.99958364 12.04080783 1 12 C0 11 0 11 -0.09765625 8.49609375 C-0.08605469 7.48675781 -0.07445312 6.47742188 -0.0625 5.4375 C-0.05347656 4.42558594 -0.04445313 3.41367187 -0.03515625 2.37109375 C-0.02355469 1.58863281 -0.01195312 0.80617188 0 0 Z " fill="#1A79F9" transform="translate(915,899)"/>
<path d="M0 0 C0.80050781 0.20882812 1.60101562 0.41765625 2.42578125 0.6328125 C3.23402344 0.83648438 4.04226563 1.04015625 4.875 1.25 C5.48988281 1.41757812 6.10476563 1.58515625 6.73828125 1.7578125 C6.73828125 2.0878125 6.73828125 2.4178125 6.73828125 2.7578125 C5.64515625 2.8609375 4.55203125 2.9640625 3.42578125 3.0703125 C-0.37326082 3.77860848 -0.8454829 4.11145895 -3.26171875 6.7578125 C-4.58171875 6.7578125 -5.90171875 6.7578125 -7.26171875 6.7578125 C-4.77491587 -0.5113036 -4.77491587 -0.5113036 0 0 Z " fill="#2E88F4" transform="translate(771.26171875,833.2421875)"/>
<path d="M0 0 C0.66 0 1.32 0 2 0 C3.25664978 2.90600261 4 4.79604584 4 8 C2.02 8 0.04 8 -2 8 C-1.47731534 5.23723823 -0.89130413 2.6739124 0 0 Z " fill="#DBECFC" transform="translate(455,838)"/>
<path d="M0 0 C0.99 0.33 1.98 0.66 3 1 C2.236875 1.7425 1.47375 2.485 0.6875 3.25 C-1.95571199 5.823554 -1.95571199 5.823554 -3.6875 8.3125 C-4.3371875 9.1478125 -4.3371875 9.1478125 -5 10 C-5.66 10 -6.32 10 -7 10 C-7 10.66 -7 11.32 -7 12 C-7.66 12 -8.32 12 -9 12 C-7.54718935 6.67302761 -3.91888622 3.63597198 0 0 Z " fill="#1A2350" transform="translate(697,706)"/>
<path d="M0 0 C0.99 0 1.98 0 3 0 C2.8858134 1.93816735 2.75826577 3.87555099 2.625 5.8125 C2.55539062 6.89144531 2.48578125 7.97039063 2.4140625 9.08203125 C2 12 2 12 0 15 C0 10.05 0 5.1 0 0 Z " fill="#0670F8" transform="translate(812,833)"/>
<path d="M0 0 C1.62463842 -0.05395478 3.24978541 -0.09277195 4.875 -0.125 C5.77992188 -0.14820313 6.68484375 -0.17140625 7.6171875 -0.1953125 C10 0 10 0 12 2 C11.34 2 10.68 2 10 2 C9.67 2.99 9.34 3.98 9 5 C6.03 4.01 3.06 3.02 0 2 C0 1.34 0 0.68 0 0 Z " fill="#1975F3" transform="translate(770,832)"/>
<path d="M0 0 C1.32 0 2.64 0 4 0 C4 0.99 4 1.98 4 3 C-4.58 3 -13.16 3 -22 3 C-22 2.67 -22 2.34 -22 2 C-14.74 1.67 -7.48 1.34 0 1 C0 0.67 0 0.34 0 0 Z " fill="#BEDAFD" transform="translate(793,649)"/>
<path d="M0 0 C7.15618661 0.34077079 7.15618661 0.34077079 10 2.5625 C10.33 3.036875 10.66 3.51125 11 4 C6.07872966 4.16682272 2.49656104 4.24828052 -2 2 C-1.34 1.34 -0.68 0.68 0 0 Z " fill="#2377F1" transform="translate(758,614)"/>
<path d="M0 0 C5.625 -0.25 5.625 -0.25 9 2 C9.40843923 4.71203652 9.13336867 7.2437142 9 10 C8.34 10 7.68 10 7 10 C6.773125 9.0925 6.54625 8.185 6.3125 7.25 C4.81872023 3.55111676 3.24599423 2.22094342 0 0 Z " fill="#1469EF" transform="translate(570,897)"/>
<path d="M0 0 C0.33 0.66 0.66 1.32 1 2 C1.99 1.34 2.98 0.68 4 0 C4.99 0.33 5.98 0.66 7 1 C6.360625 1.309375 5.72125 1.61875 5.0625 1.9375 C1.90231425 5.09768575 2.18099207 8.68333908 2 13 C1.34 13 0.68 13 0 13 C0 8.71 0 4.42 0 0 Z " fill="#056BF5" transform="translate(883,897)"/>
<path d="M0 0 C0 3.67914713 -0.82802213 4.39826865 -3.1875 7.125 C-3.77917969 7.82882812 -4.37085938 8.53265625 -4.98046875 9.2578125 C-7.32542438 11.28073361 -8.96066402 11.65354719 -12 12 C-8 8 -4 4 0 0 Z " fill="#1376F5" transform="translate(895,537)"/>
<path d="M0 0 C3.40312738 1.05875074 6.01353231 2.00902154 9 4 C9 4.66 9 5.32 9 6 C8.34 6 7.68 6 7 6 C6.67 7.32 6.34 8.64 6 10 C4.02 6.7 2.04 3.4 0 0 Z " fill="#1B73F8" transform="translate(915,367)"/>
<path d="M0 0 C1.98 0.495 1.98 0.495 4 1 C4 1.66 4 2.32 4 3 C6.31 3 8.62 3 11 3 C10.67 3.66 10.34 4.32 10 5 C8.741875 5.04125 7.48375 5.0825 6.1875 5.125 C5.47980469 5.14820313 4.77210938 5.17140625 4.04296875 5.1953125 C2 5 2 5 -1 3 C-0.67 2.01 -0.34 1.02 0 0 Z " fill="#1865E2" transform="translate(544,906)"/>
<path d="M0 0 C3.63 0 7.26 0 11 0 C11 0.99 11 1.98 11 3 C9.54257537 3.08096803 8.08387193 3.13917774 6.625 3.1875 C5.81289063 3.22230469 5.00078125 3.25710938 4.1640625 3.29296875 C3.44992187 3.19628906 2.73578125 3.09960938 2 3 C1.34 2.01 0.68 1.02 0 0 Z " fill="#1777F4" transform="translate(881,852)"/>
<path d="M0 0 C1.9451 2.91765 2.45276317 4.62537285 3 8 C-0.68754757 7.50168276 -2.60490662 6.89932357 -5 4 C-4.0409375 3.8453125 -4.0409375 3.8453125 -3.0625 3.6875 C-2.381875 3.460625 -1.70125 3.23375 -1 3 C-0.67 2.01 -0.34 1.02 0 0 Z " fill="#2B79F4" transform="translate(788,264)"/>
<path d="M0 0 C0.66 0.33 1.32 0.66 2 1 C1.6875 3.375 1.6875 3.375 1 6 C-2.8503105 8.56687367 -4.58569763 7.83288724 -9 7 C-9 6.67 -9 6.34 -9 6 C-7.02 5.67 -5.04 5.34 -3 5 C-3 3.68 -3 2.36 -3 1 C-2.01 0.67 -1.02 0.34 0 0 Z " fill="#2D88F5" transform="translate(557,902)"/>
<path d="M0 0 C0.33 0.66 0.66 1.32 1 2 C1.66 2 2.32 2 3 2 C2.67 5.96 2.34 9.92 2 14 C1.01 14 0.02 14 -1 14 C-0.67 9.38 -0.34 4.76 0 0 Z " fill="#0F79F7" transform="translate(803,897)"/>
<path d="M0 0 C2.64 0 5.28 0 8 0 C8.66 1.32 9.32 2.64 10 4 C7.03 4 4.06 4 1 4 C0.67 2.68 0.34 1.36 0 0 Z " fill="#3184F2" transform="translate(708,896)"/>
<path d="M0 0 C-2.57404971 3.86107457 -4.61020259 3.94319692 -9 5 C-9.33 6.98 -9.66 8.96 -10 11 C-10.33 11 -10.66 11 -11 11 C-11.48076923 4.75 -11.48076923 4.75 -9.4375 1.5625 C-6.18129203 -0.5248128 -3.79004984 -0.2915423 0 0 Z " fill="#2F83F5" transform="translate(575,896)"/>
<path d="M0 0 C1.32 0 2.64 0 4 0 C3.67 2.97 3.34 5.94 3 9 C2.01 9.33 1.02 9.66 0 10 C0 6.7 0 3.4 0 0 Z " fill="#0E75F2" transform="translate(877,838)"/>
<path d="M0 0 C6.0546875 -0.1953125 6.0546875 -0.1953125 8 0 C8.66 0.66 9.32 1.32 10 2 C9 3 9 3 6.71484375 3.09765625 C5.34005859 3.08025391 5.34005859 3.08025391 3.9375 3.0625 C3.01839844 3.05347656 2.09929687 3.04445313 1.15234375 3.03515625 C0.44207031 3.02355469 -0.26820312 3.01195312 -1 3 C-0.67 2.01 -0.34 1.02 0 0 Z " fill="#1173F4" transform="translate(1032,852)"/>
<path d="M0 0 C0.99 0 1.98 0 3 0 C2.34 3.63 1.68 7.26 1 11 C-1 9 -1 9 -1.23046875 7.08984375 C-1.11111111 1.11111111 -1.11111111 1.11111111 0 0 Z " fill="#0B73F3" transform="translate(765,839)"/>
<path d="M0 0 C0 0.99 0 1.98 0 3 C-1.4117783 3.53394179 -2.82970244 4.05165104 -4.25 4.5625 C-5.03890625 4.85253906 -5.8278125 5.14257812 -6.640625 5.44140625 C-9.19103452 6.04522837 -10.55322229 5.8473932 -13 5 C-11.21046815 4.16209211 -9.41830305 3.32980604 -7.625 2.5 C-6.62726562 2.0359375 -5.62953125 1.571875 -4.6015625 1.09375 C-2 0 -2 0 0 0 Z " fill="#2781F4" transform="translate(814,594)"/>
<path d="M0 0 C0.66 0.33 1.32 0.66 2 1 C-1.61328125 5.6875 -1.61328125 5.6875 -3 7 C-3.99 7 -4.98 7 -6 7 C-6.99 7.33 -7.98 7.66 -9 8 C-7.83917375 4.51752126 -7.09067524 4.11180756 -4.0625 2.25 C-3.35222656 1.80140625 -2.64195312 1.3528125 -1.91015625 0.890625 C-1.27980469 0.59671875 -0.64945313 0.3028125 0 0 Z " fill="#2460E8" transform="translate(559,366)"/>
<path d="M0 0 C0.33 0.66 0.66 1.32 1 2 C1.99 2 2.98 2 4 2 C4.66 3.98 5.32 5.96 6 8 C4.35 8 2.7 8 1 8 C0.67 5.36 0.34 2.72 0 0 Z " fill="#247CF3" transform="translate(1057,847)"/>
<path d="M0 0 C0.33 0.66 0.66 1.32 1 2 C1.66 2 2.32 2 3 2 C2.67 3.98 2.34 5.96 2 8 C0.68 8 -0.64 8 -2 8 C-1.125 2.25 -1.125 2.25 0 0 Z " fill="#2981F1" transform="translate(447,847)"/>
<path d="M0 0 C1.48117801 0.28127421 2.95993249 0.57533732 4.4375 0.875 C5.67306641 1.11863281 5.67306641 1.11863281 6.93359375 1.3671875 C7.61550781 1.57601562 8.29742187 1.78484375 9 2 C9.33 2.66 9.66 3.32 10 4 C8.37585622 4.19477739 6.75063577 4.38059458 5.125 4.5625 C4.22007812 4.66691406 3.31515625 4.77132812 2.3828125 4.87890625 C0 5 0 5 -2 4 C-2 3.34 -2 2.68 -2 2 C-1.34 2 -0.68 2 0 2 C0 1.34 0 0.68 0 0 Z " fill="#046CF1" transform="translate(450,845)"/>
<path d="M0 0 C1.32 0.33 2.64 0.66 4 1 C1.69 3.31 -0.62 5.62 -3 8 C-3.33 7.01 -3.66 6.02 -4 5 C-2.0625 2.3125 -2.0625 2.3125 0 0 Z M-5 8 C-5 11 -5 11 -5 11 Z " fill="#1076F6" transform="translate(907,523)"/>
<path d="M0 0 C1.69911188 5.19996655 -0.89923729 8.74053969 -3.1875 13.4375 C-3.455625 13.953125 -3.72375 14.46875 -4 15 C-4.66 15 -5.32 15 -6 15 C-4.40109514 9.80355921 -2.25861997 4.93387858 0 0 Z " fill="#3586F4" transform="translate(932,482)"/>
<path d="M0 0 C0.33 0.66 0.66 1.32 1 2 C0.34 2 -0.32 2 -1 2 C-1.226875 2.5775 -1.45375 3.155 -1.6875 3.75 C-3.33038023 6.5663661 -5.39533227 8.08077114 -8 10 C-8.33 9.34 -8.66 8.68 -9 8 C-6.14723863 5.06799526 -3.34920216 2.35684596 0 0 Z " fill="#1879F5" transform="translate(811,282)"/>
<path d="M0 0 C0.99 0 1.98 0 3 0 C3 2.97 3 5.94 3 9 C2.01 9.495 2.01 9.495 1 10 C0.67 8.02 0.34 6.04 0 4 C-0.66 5.32 -1.32 6.64 -2 8 C-2.125 5.125 -2.125 5.125 -2 2 C-1.34 1.34 -0.68 0.68 0 0 Z " fill="#3889F0" transform="translate(782,898)"/>
<path d="M0 0 C-0.66 1.32 -1.32 2.64 -2 4 C-5.3 3.34 -8.6 2.68 -12 2 C-12 1.67 -12 1.34 -12 1 C-10.56496445 0.63597631 -9.12683494 0.28413409 -7.6875 -0.0625 C-6.88699219 -0.25972656 -6.08648438 -0.45695313 -5.26171875 -0.66015625 C-3 -1 -3 -1 0 0 Z " fill="#3589F5" transform="translate(897,850)"/>
<path d="M0 0 C2.0625 0.4375 2.0625 0.4375 4 1 C3.67 1.99 3.34 2.98 3 4 C2.01 4.33 1.02 4.66 0 5 C-0.33 4.67 -0.66 4.34 -1 4 C-3.32817964 3.63239269 -5.6618385 3.29758419 -8 3 C-8 2.67 -8 2.34 -8 2 C-6.865625 1.855625 -5.73125 1.71125 -4.5625 1.5625 C-1.19222799 1.38828522 -1.19222799 1.38828522 0 0 Z " fill="#3A94F8" transform="translate(753,849)"/>
<path d="M0 0 C0.33 0 0.66 0 1 0 C1.66 3.96 2.32 7.92 3 12 C2.01 12.495 2.01 12.495 1 13 C-1.70238949 8.94641576 -1.22937614 6.81689896 -1 2 C-0.67 1.34 -0.34 0.68 0 0 Z " fill="#3A88ED" transform="translate(971,838)"/>
<path d="M0 0 C5 1 5 1 8 3 C4.25 4.125 4.25 4.125 2 3 C1.67 6.3 1.34 9.6 1 13 C0.67 13 0.34 13 0 13 C0 8.71 0 4.42 0 0 Z " fill="#2D86F4" transform="translate(802,896)"/>
<path d="M0 0 C2.375 0.3125 2.375 0.3125 5 1 C5.66 1.99 6.32 2.98 7 4 C6.34 4 5.68 4 5 4 C5 4.66 5 5.32 5 6 C3.0625 5.25 3.0625 5.25 1 4 C0.25 1.875 0.25 1.875 0 0 Z " fill="#1B76EE" transform="translate(738,848)"/>
<path d="M0 0 C0.66 0 1.32 0 2 0 C2 3.3 2 6.6 2 10 C1.34 10 0.68 10 0 10 C-0.19412181 8.52168779 -0.38012131 7.04230684 -0.5625 5.5625 C-0.66691406 4.73878906 -0.77132813 3.91507813 -0.87890625 3.06640625 C-0.91886719 2.38449219 -0.95882813 1.70257812 -1 1 C-0.67 0.67 -0.34 0.34 0 0 Z " fill="#096FF9" transform="translate(1026,837)"/>
<path d="M0 0 C2.0625 1.6875 2.0625 1.6875 4 4 C3.75 6.75 3.75 6.75 3 9 C2.34 8.67 1.68 8.34 1 8 C1 7.34 1 6.68 1 6 C0.34 6 -0.32 6 -1 6 C-0.67 4.02 -0.34 2.04 0 0 Z " fill="#1577F4" transform="translate(800,833)"/>
<path d="M0 0 C0.66 0.99 1.32 1.98 2 3 C4.05925139 3.72382467 4.05925139 3.72382467 6 4 C1.25 8 1.25 8 -1 8 C-0.67 5.36 -0.34 2.72 0 0 Z " fill="#216AE9" transform="translate(687,264)"/>
<path d="M0 0 C0.625 1.875 0.625 1.875 1 4 C-1 6 -1 6 -3.625 6.125 C-4.40875 6.08375 -5.1925 6.0425 -6 6 C-4.75453595 2.26360784 -3.36595047 1.81243487 0 0 Z " fill="#2373F2" transform="translate(932,911)"/>
<path d="M0 0 C3.3 0 6.6 0 10 0 C5.5 3.375 5.5 3.375 1 3 C0.67 2.01 0.34 1.02 0 0 Z " fill="#EFF7FD" transform="translate(689,905)"/>
<path d="M0 0 C2.97 0.495 2.97 0.495 6 1 C6.33 2.65 6.66 4.3 7 6 C6.67 5.34 6.34 4.68 6 4 C3.47266765 3.34444881 3.47266765 3.34444881 1 3 C0.67 2.01 0.34 1.02 0 0 Z " fill="#0E69EF" transform="translate(550,899)"/>
<path d="M0 0 C1.98 0 3.96 0 6 0 C6.33 0.66 6.66 1.32 7 2 C6.01 3.485 6.01 3.485 5 5 C3.02 4.01 1.04 3.02 -1 2 C-0.67 1.34 -0.34 0.68 0 0 Z " fill="#277AF3" transform="translate(600,896)"/>
<path d="M0 0 C0.66 0.66 1.32 1.32 2 2 C1.67 3.32 1.34 4.64 1 6 C-2.3 5.34 -5.6 4.68 -9 4 C-9 3.67 -9 3.34 -9 3 C-7.88625 2.87625 -6.7725 2.7525 -5.625 2.625 C-1.96896323 2.3534187 -1.96896323 2.3534187 0 0 Z " fill="#3A90F6" transform="translate(1042,848)"/>
<path d="M0 0 C0 0.66 0 1.32 0 2 C-0.66 2 -1.32 2 -2 2 C-2 5.63 -2 9.26 -2 13 C-2.33 13 -2.66 13 -3 13 C-3.41694996 11.40119187 -3.80790856 9.79558739 -4.1875 8.1875 C-4.40792969 7.29417969 -4.62835937 6.40085937 -4.85546875 5.48046875 C-5 3 -5 3 -3.67578125 1.17578125 C-2 0 -2 0 0 0 Z " fill="#338EF6" transform="translate(977,833)"/>
<path d="M0 0 C1.45922693 0.11409593 2.91740598 0.24165544 4.375 0.375 C5.59316406 0.47941406 5.59316406 0.47941406 6.8359375 0.5859375 C9 1 9 1 11 3 C9.54176788 3.0270043 8.08339325 3.04639787 6.625 3.0625 C5.81289063 3.07410156 5.00078125 3.08570313 4.1640625 3.09765625 C2 3 2 3 0 2 C0 1.34 0 0.68 0 0 Z " fill="#1A63E6" transform="translate(510,304)"/>
<path d="M0 0 C0.99 0 1.98 0 3 0 C3.33 1.98 3.66 3.96 4 6 C2.35 5.67 0.7 5.34 -1 5 C-1.33 4.01 -1.66 3.02 -2 2 C-1.34 2 -0.68 2 0 2 C0 1.34 0 0.68 0 0 Z " fill="#1C7CF5" transform="translate(513,847)"/>
<path d="M0 0 C0 0.99 0 1.98 0 3 C-1.32 3.33 -2.64 3.66 -4 4 C-4 3.34 -4 2.68 -4 2 C-7.63 2 -11.26 2 -15 2 C-15 1.67 -15 1.34 -15 1 C-12.8750734 0.83240016 -10.75005624 0.66594799 -8.625 0.5 C-7.44164062 0.4071875 -6.25828125 0.314375 -5.0390625 0.21875 C-3.36213157 0.09804546 -1.68126944 0 0 0 Z " fill="#373E66" transform="translate(552,766)"/>
<path d="M0 0 C3.24208567 0.35049575 4.61527704 0.56221181 6.8125 3.0625 C7.204375 3.701875 7.59625 4.34125 8 5 C6.68 5 5.36 5 4 5 C1.75 2.5 1.75 2.5 0 0 Z " fill="#115FE8" transform="translate(527,312)"/>
<path d="M0 0 C-0.99 1.485 -0.99 1.485 -2 3 C-4.97 2.67 -7.94 2.34 -11 2 C-11 1.67 -11 1.34 -11 1 C-3.57142857 -1.42857143 -3.57142857 -1.42857143 0 0 Z " fill="#348AF7" transform="translate(775,907)"/>
<path d="M0 0 C1.98 0 3.96 0 6 0 C5.67 1.32 5.34 2.64 5 4 C3.35 3.67 1.7 3.34 0 3 C0 2.01 0 1.02 0 0 Z " fill="#D8ECFB" transform="translate(618,905)"/>
<path d="M0 0 C2.31 0 4.62 0 7 0 C7 0.66 7 1.32 7 2 C6.05125 2.309375 5.1025 2.61875 4.125 2.9375 C1.13919592 3.87394742 1.13919592 3.87394742 -1 5 C-0.67 3.35 -0.34 1.7 0 0 Z " fill="#1C6CEF" transform="translate(688,896)"/>
<path d="M0 0 C1.98 0 3.96 0 6 0 C5.34 1.65 4.68 3.3 4 5 C3.01 4.67 2.02 4.34 1 4 C0.3125 1.9375 0.3125 1.9375 0 0 Z " fill="#0971F6" transform="translate(1007,843)"/>
<path d="M0 0 C0 2.64 0 5.28 0 8 C-0.99 8.33 -1.98 8.66 -3 9 C-3 6.36 -3 3.72 -3 1 C-1 0 -1 0 0 0 Z " fill="#0D77F6" transform="translate(682,838)"/>
<path d="M0 0 C0.66 0.99 1.32 1.98 2 3 C0.35 4.32 -1.3 5.64 -3 7 C-3.99 6.34 -4.98 5.68 -6 5 C-4.02 3.35 -2.04 1.7 0 0 Z " fill="#1D2753" transform="translate(558,760)"/>
<path d="M0 0 C2.31 0 4.62 0 7 0 C7 0.33 7 0.66 7 1 C8.65 1.33 10.3 1.66 12 2 C12 2.33 12 2.66 12 3 C3.42857143 3.14285714 3.42857143 3.14285714 0 2 C0 1.34 0 0.68 0 0 Z " fill="#3581F1" transform="translate(715,645)"/>
<path d="M0 0 C0.66 0.33 1.32 0.66 2 1 C-0.12121657 3.33333823 -2.01594365 4.9148886 -5 6 C-7.12890625 5.546875 -7.12890625 5.546875 -9 5 C-7.54735962 4.1361871 -6.0876837 3.28419546 -4.625 2.4375 C-3.40683594 1.72400391 -3.40683594 1.72400391 -2.1640625 0.99609375 C-1.44992187 0.66738281 -0.73578125 0.33867188 0 0 Z " fill="#2B80F3" transform="translate(827,586)"/>
<path d="M0 0 C0.33 0 0.66 0 1 0 C1 3.63 1 7.26 1 11 C0.34 11 -0.32 11 -1 11 C-1 10.34 -1 9.68 -1 9 C-1.66 8.67 -2.32 8.34 -3 8 C-2.34 8 -1.68 8 -1 8 C-0.67 5.36 -0.34 2.72 0 0 Z " fill="#035AED" transform="translate(626,900)"/>
<path d="M0 0 C2.31 0 4.62 0 7 0 C7 0.66 7 1.32 7 2 C4.36 2.66 1.72 3.32 -1 4 C-0.67 2.68 -0.34 1.36 0 0 Z " fill="#1C6AF4" transform="translate(617,896)"/>
<path d="M0 0 C1.32 0 2.64 0 4 0 C4.33 1.32 4.66 2.64 5 4 C4.34 4 3.68 4 3 4 C2.67 4.99 2.34 5.98 2 7 C1.67 6.01 1.34 5.02 1 4 C0.01 4.495 0.01 4.495 -1 5 C-0.67 3.35 -0.34 1.7 0 0 Z " fill="#3289F1" transform="translate(452,834)"/>
<path d="M0 0 C2.31 0 4.62 0 7 0 C7 0.99 7 1.98 7 3 C4.69 3 2.38 3 0 3 C0 2.01 0 1.02 0 0 Z " fill="#2985F8" transform="translate(903,833)"/>
<path d="M0 0 C0.66 0.33 1.32 0.66 2 1 C1.01 2.485 1.01 2.485 0 4 C-0.33 4.99 -0.66 5.98 -1 7 C-1.99 6.34 -2.98 5.68 -4 5 C-3.6875 3.0625 -3.6875 3.0625 -3 1 C-2.01 0.67 -1.02 0.34 0 0 Z " fill="#1F295A" transform="translate(515,710)"/>
<path d="M0 0 C2.64 0.66 5.28 1.32 8 2 C7.67 2.66 7.34 3.32 7 4 C4.69 3.67 2.38 3.34 0 3 C0 2.01 0 1.02 0 0 Z " fill="#1B7AF8" transform="translate(768,643)"/>
<path d="M0 0 C4.12751449 0.60698743 7.3321148 2.03810791 11 4 C9 5 9 5 6.8359375 4.44140625 C6.02382813 4.15136719 5.21171875 3.86132812 4.375 3.5625 C3.55773437 3.27503906 2.74046875 2.98757813 1.8984375 2.69140625 C1.27195312 2.46324219 0.64546875 2.23507812 0 2 C0 1.34 0 0.68 0 0 Z " fill="#296FE4" transform="translate(665,572)"/>
<path d="M0 0 C0.83583327 2.37607949 1.1842383 3.54449627 0.22265625 5.921875 C-0.8515625 7.61458333 -1.92578125 9.30729167 -3 11 C-3.33 10.34 -3.66 9.68 -4 9 C-3.22265625 6.8359375 -3.22265625 6.8359375 -2.0625 4.375 C-1.68222656 3.55773437 -1.30195312 2.74046875 -0.91015625 1.8984375 C-0.60980469 1.27195313 -0.30945313 0.64546875 0 0 Z " fill="#2F77E8" transform="translate(695,243)"/>
<path d="M0 0 C0.66 0 1.32 0 2 0 C2 2.31 2 4.62 2 7 C1.01 7.495 1.01 7.495 0 8 C-0.38063221 5.6739143 -0.71269945 3.33944736 -1 1 C-0.67 0.67 -0.34 0.34 0 0 Z " fill="#1470F6" transform="translate(793,901)"/>
<path d="M0 0 C0.94875 0.04125 1.8975 0.0825 2.875 0.125 C2.875 1.115 2.875 2.105 2.875 3.125 C0.235 2.795 -2.405 2.465 -5.125 2.125 C-3.125 0.125 -3.125 0.125 0 0 Z " fill="#E5F4FD" transform="translate(621.125,898.875)"/>
<path d="M0 0 C1.89213369 2.38573379 3.02391783 4.07175348 4 7 C3.67 7.66 3.34 8.32 3 9 C1.68 8.67 0.36 8.34 -1 8 C-0.67 5.36 -0.34 2.72 0 0 Z " fill="#2C83F3" transform="translate(678,841)"/>
<path d="M0 0 C2.31 1.98 4.62 3.96 7 6 C6.34 6.66 5.68 7.32 5 8 C2.5 5.6875 2.5 5.6875 0 3 C0 2.01 0 1.02 0 0 Z " fill="#1C244C" transform="translate(691,766)"/>
<path d="M0 0 C2.97 0.99 5.94 1.98 9 3 C9 3.66 9 4.32 9 5 C4.68607774 4.5206753 2.83430453 3.2542015 0 0 Z " fill="#2369DF" transform="translate(647,564)"/>
<path d="M0 0 C1.98 0 3.96 0 6 0 C6 0.99 6 1.98 6 3 C4.02 3 2.04 3 0 3 C0 2.01 0 1.02 0 0 Z " fill="#E4F1FC" transform="translate(689,899)"/>
<path d="M0 0 C0.33 0 0.66 0 1 0 C1 1.65 1 3.3 1 5 C1.66 5 2.32 5 3 5 C2.34 6.32 1.68 7.64 1 9 C0.01 8.34 -0.98 7.68 -2 7 C-1.34 4.69 -0.68 2.38 0 0 Z " fill="#2B82F6" transform="translate(1076,841)"/>
<path d="M0 0 C0.66 0.33 1.32 0.66 2 1 C1.73958333 3.01822917 1.47916667 5.03645833 1.21875 7.0546875 C0.9627515 9.00498344 0.9627515 9.00498344 1 11 C0.34 11 -0.32 11 -1 11 C-1.02688151 9.35425434 -1.04634123 7.70838587 -1.0625 6.0625 C-1.07410156 5.14597656 -1.08570313 4.22945312 -1.09765625 3.28515625 C-1 1 -1 1 0 0 Z " fill="#0D71F7" transform="translate(1045,837)"/>
<path d="M0 0 C1.32 0 2.64 0 4 0 C3.67 2.31 3.34 4.62 3 7 C2.67 5.68 2.34 4.36 2 3 C1.34 3 0.68 3 0 3 C0 2.01 0 1.02 0 0 Z " fill="#1972F0" transform="translate(1053,832)"/>
<path d="M0 0 C0.8353125 0.37125 0.8353125 0.37125 1.6875 0.75 C1.0275 1.41 0.3675 2.07 -0.3125 2.75 C-1.3025 2.75 -2.2925 2.75 -3.3125 2.75 C-3.3125 3.41 -3.3125 4.07 -3.3125 4.75 C-4.6325 4.42 -5.9525 4.09 -7.3125 3.75 C-2.88173077 -0.31153846 -2.88173077 -0.31153846 0 0 Z " fill="#165BE3" transform="translate(547.3125,375.25)"/>
<path d="M0 0 C-1 3 -1 3 -3.9375 4.75 C-5.4534375 5.36875 -5.4534375 5.36875 -7 6 C-7.66 5.67 -8.32 5.34 -9 5 C-7.87926138 4.16094435 -6.75325453 3.32892169 -5.625 2.5 C-4.99851562 2.0359375 -4.37203125 1.571875 -3.7265625 1.09375 C-2 0 -2 0 0 0 Z " fill="#1976F2" transform="translate(835,266)"/>
<path d="M0 0 C0.66 0 1.32 0 2 0 C1.44271087 3.34373475 0.64826111 6.03312999 -1 9 C-1.09765625 2.84765625 -1.09765625 2.84765625 -1 1 C-0.67 0.67 -0.34 0.34 0 0 Z " fill="#1070F5" transform="translate(707,897)"/>
<path d="M0 0 C0.99 0 1.98 0 3 0 C2.125 4.75 2.125 4.75 1 7 C0.34 7 -0.32 7 -1 7 C-0.67 4.69 -0.34 2.38 0 0 Z " fill="#1B6AEF" transform="translate(937,896)"/>
<path d="M0 0 C0.66 0.99 1.32 1.98 2 3 C0.125 4.0625 0.125 4.0625 -2 5 C-2.66 4.67 -3.32 4.34 -4 4 C-4 3.34 -4 2.68 -4 2 C-2.68 1.34 -1.36 0.68 0 0 Z " fill="#0E70F5" transform="translate(678,848)"/>
<path d="M0 0 C1.32 1.65 2.64 3.3 4 5 C2.68 5 1.36 5 0 5 C-0.66 3.68 -1.32 2.36 -2 1 C-1.34 0.67 -0.68 0.34 0 0 Z " fill="#1C7EF6" transform="translate(1028,846)"/>
<path d="M0 0 C1.65 0 3.3 0 5 0 C5 0.66 5 1.32 5 2 C5.66 2.33 6.32 2.66 7 3 C4.69 3 2.38 3 0 3 C0 2.01 0 1.02 0 0 Z " fill="#0561E7" transform="translate(745,832)"/>
<path d="M0 0 C0.99 0 1.98 0 3 0 C2.34 3.63 1.68 7.26 1 11 C0.67 11 0.34 11 0 11 C0 7.37 0 3.74 0 0 Z " fill="#0576FA" transform="translate(425,833)"/>
</svg>
